<svg width="187" height="665" viewBox="0 0 187 665" fill="none" xmlns="http://www.w3.org/2000/svg">
<path fill-rule="evenodd" clip-rule="evenodd" d="M159 0H0V665H159V608.666L187 592.5L159 576.334V511.666L187 495.5L159 479.334V414.666L187 398.5L159 382.334V317.666L187 301.5L159 285.334V220.666L187 204.5L159 188.334V0Z" fill="url(#paint0_linear_3_2943)"/>
<circle cx="73.5" cy="198.5" r="25.5" stroke="white" stroke-width="4"/>
<path d="M73.9512 211.169C73.7179 211.169 73.5195 211.099 73.3562 210.959C73.2162 210.796 73.1462 210.598 73.1462 210.364V190.764L67.3362 195.244C67.1495 195.384 66.9512 195.443 66.7412 195.419C66.5312 195.396 66.3562 195.291 66.2162 195.104L65.3062 193.949C65.1662 193.739 65.1079 193.529 65.1312 193.319C65.1779 193.109 65.2945 192.934 65.4812 192.794L73.1112 186.914C73.2745 186.798 73.4262 186.728 73.5662 186.704C73.7062 186.681 73.8579 186.669 74.0212 186.669H75.8062C76.0395 186.669 76.2262 186.751 76.3662 186.914C76.5295 187.054 76.6112 187.241 76.6112 187.474V210.364C76.6112 210.598 76.5295 210.796 76.3662 210.959C76.2262 211.099 76.0395 211.169 75.8062 211.169H73.9512Z" fill="white"/>
<circle cx="73.5" cy="295.5" r="25.5" stroke="white" stroke-width="4"/>
<path d="M65.9942 308.169C65.7608 308.169 65.5625 308.099 65.3992 307.959C65.2592 307.796 65.1892 307.598 65.1892 307.364V306.244C65.1892 306.034 65.2475 305.801 65.3642 305.544C65.4808 305.288 65.7142 305.008 66.0642 304.704L73.4842 297.284C74.6742 296.281 75.6075 295.429 76.2842 294.729C76.9842 294.006 77.4742 293.318 77.7542 292.664C78.0575 292.011 78.2092 291.334 78.2092 290.634C78.2092 289.304 77.8358 288.254 77.0892 287.484C76.3425 286.691 75.2342 286.294 73.7642 286.294C72.8308 286.294 72.0258 286.493 71.3492 286.889C70.6725 287.263 70.1475 287.788 69.7742 288.464C69.4008 289.118 69.1442 289.864 69.0042 290.704C68.9575 291.008 68.8292 291.218 68.6192 291.334C68.4325 291.451 68.2575 291.509 68.0942 291.509H66.2742C66.0642 291.509 65.8892 291.451 65.7492 291.334C65.6092 291.194 65.5392 291.031 65.5392 290.844C65.5625 289.958 65.7492 289.071 66.0992 288.184C66.4492 287.274 66.9625 286.458 67.6392 285.734C68.3392 284.988 69.1908 284.393 70.1942 283.949C71.2208 283.506 72.4108 283.284 73.7642 283.284C75.6075 283.284 77.1125 283.623 78.2792 284.299C79.4692 284.953 80.3442 285.828 80.9042 286.924C81.4642 288.021 81.7442 289.223 81.7442 290.529C81.7442 291.556 81.5692 292.501 81.2192 293.364C80.8692 294.204 80.3558 295.033 79.6792 295.849C79.0258 296.643 78.2092 297.459 77.2292 298.299L70.5092 305.124H81.4292C81.6859 305.124 81.8842 305.194 82.0242 305.334C82.1875 305.474 82.2692 305.673 82.2692 305.929V307.364C82.2692 307.598 82.1875 307.796 82.0242 307.959C81.8842 308.099 81.6859 308.169 81.4292 308.169H65.9942Z" fill="white"/>
<circle cx="73.5" cy="392.5" r="25.5" stroke="white" stroke-width="4"/>
<path d="M73.9042 405.519C72.4342 405.519 71.1508 405.344 70.0542 404.994C68.9575 404.621 68.0358 404.131 67.2892 403.524C66.5425 402.918 65.9708 402.253 65.5742 401.529C65.2008 400.783 65.0025 400.036 64.9792 399.289C64.9792 399.079 65.0492 398.916 65.1892 398.799C65.3292 398.659 65.5042 398.589 65.7142 398.589H67.4292C67.6392 398.589 67.8258 398.648 67.9892 398.764C68.1758 398.858 68.3158 399.056 68.4092 399.359C68.6425 400.199 69.0392 400.853 69.5992 401.319C70.1825 401.786 70.8475 402.113 71.5942 402.299C72.3642 402.463 73.1342 402.544 73.9042 402.544C75.5142 402.544 76.8208 402.159 77.8242 401.389C78.8275 400.619 79.3292 399.488 79.3292 397.994C79.3292 396.478 78.8742 395.393 77.9642 394.739C77.0542 394.086 75.7942 393.759 74.1842 393.759H70.8592C70.6258 393.759 70.4275 393.689 70.2642 393.549C70.1242 393.409 70.0542 393.211 70.0542 392.954V392.009C70.0542 391.799 70.0892 391.624 70.1592 391.484C70.2525 391.321 70.3458 391.181 70.4392 391.064L77.2292 383.644H66.9042C66.6708 383.644 66.4725 383.574 66.3092 383.434C66.1692 383.294 66.0992 383.096 66.0992 382.839V381.509C66.0992 381.253 66.1692 381.054 66.3092 380.914C66.4725 380.751 66.6708 380.669 66.9042 380.669H80.8692C81.1258 380.669 81.3242 380.751 81.4642 380.914C81.6275 381.054 81.7092 381.253 81.7092 381.509V382.769C81.7092 382.933 81.6625 383.084 81.5692 383.224C81.4992 383.341 81.4175 383.458 81.3242 383.574L74.5692 391.099L75.1292 391.134C76.6692 391.181 78.0108 391.461 79.1542 391.974C80.3208 392.488 81.2192 393.258 81.8492 394.284C82.5025 395.288 82.8292 396.559 82.8292 398.099C82.8292 399.663 82.4442 400.993 81.6742 402.089C80.9042 403.186 79.8425 404.038 78.4892 404.644C77.1592 405.228 75.6308 405.519 73.9042 405.519Z" fill="white"/>
<circle cx="73.5" cy="489.5" r="25.5" stroke="white" stroke-width="4"/>
<path d="M75.8754 501.353C75.642 501.353 75.4437 501.283 75.2804 501.143C75.1404 500.979 75.0704 500.781 75.0704 500.548V495.508H63.7304C63.497 495.508 63.2987 495.438 63.1354 495.298C62.9954 495.134 62.9254 494.936 62.9254 494.703V493.303C62.9254 493.209 62.9487 493.069 62.9954 492.883C63.0654 492.673 63.1704 492.463 63.3104 492.253L73.8104 477.448C74.0904 477.051 74.522 476.853 75.1054 476.853H77.6254C77.8587 476.853 78.0454 476.934 78.1854 477.098C78.3487 477.238 78.4304 477.424 78.4304 477.658V492.463H81.5804C81.837 492.463 82.0354 492.544 82.1754 492.708C82.3387 492.848 82.4204 493.034 82.4204 493.268V494.703C82.4204 494.936 82.3387 495.134 82.1754 495.298C82.0354 495.438 81.8487 495.508 81.6154 495.508H78.4304V500.548C78.4304 500.781 78.3487 500.979 78.1854 501.143C78.0454 501.283 77.8587 501.353 77.6254 501.353H75.8754ZM66.6704 492.533H75.1054V480.528L66.6704 492.533Z" fill="white"/>
<circle cx="73.5" cy="586.5" r="25.5" stroke="white" stroke-width="4"/>
<path d="M72.6942 599.519C70.8508 599.519 69.2875 599.204 68.0042 598.574C66.7442 597.921 65.7758 597.081 65.0992 596.054C64.4458 595.028 64.0958 593.943 64.0492 592.799C64.0258 592.589 64.0842 592.426 64.2242 592.309C64.3642 592.169 64.5392 592.099 64.7492 592.099H66.6392C66.8492 592.099 67.0358 592.158 67.1992 592.274C67.3625 592.368 67.4908 592.566 67.5842 592.869C67.8175 593.733 68.1908 594.444 68.7042 595.004C69.2408 595.541 69.8475 595.938 70.5242 596.194C71.2242 596.428 71.9475 596.544 72.6942 596.544C73.6975 596.544 74.6075 596.346 75.4242 595.949C76.2642 595.529 76.9292 594.923 77.4192 594.129C77.9092 593.313 78.1542 592.333 78.1542 591.189C78.1542 590.139 77.9092 589.241 77.4192 588.494C76.9525 587.724 76.2992 587.141 75.4592 586.744C74.6425 586.324 73.7208 586.114 72.6942 586.114C71.9242 586.114 71.2942 586.208 70.8042 586.394C70.3142 586.581 69.8942 586.803 69.5442 587.059C69.2175 587.316 68.9142 587.538 68.6342 587.724C68.3775 587.911 68.0858 588.004 67.7592 588.004H65.9392C65.7292 588.004 65.5425 587.934 65.3792 587.794C65.2158 587.631 65.1458 587.444 65.1692 587.234L66.2892 575.544C66.3125 575.264 66.3942 575.054 66.5342 574.914C66.6975 574.751 66.9075 574.669 67.1642 574.669H79.3792C79.6125 574.669 79.7992 574.751 79.9392 574.914C80.1025 575.054 80.1842 575.241 80.1842 575.474V576.839C80.1842 577.096 80.1025 577.294 79.9392 577.434C79.7992 577.574 79.6125 577.644 79.3792 577.644H69.2992L68.6342 584.539C68.9842 584.329 69.5092 584.084 70.2092 583.804C70.9325 583.501 71.9242 583.349 73.1842 583.349C74.3508 583.349 75.4358 583.524 76.4392 583.874C77.4658 584.224 78.3642 584.738 79.1342 585.414C79.9275 586.091 80.5459 586.919 80.9892 587.899C81.4325 588.856 81.6542 589.964 81.6542 591.224C81.6542 592.998 81.2692 594.503 80.4992 595.739C79.7292 596.976 78.6675 597.921 77.3142 598.574C75.9608 599.204 74.4208 599.519 72.6942 599.519Z" fill="white"/>
<defs>
<linearGradient id="paint0_linear_3_2943" x1="304" y1="397.5" x2="-259.941" y2="362.717" gradientUnits="userSpaceOnUse">
<stop stop-color="#07B0F3"/>
<stop offset="1" stop-color="#DFF6FF"/>
</linearGradient>
</defs>
</svg>
