<svg width="83" height="65" viewBox="0 0 83 65" fill="none" xmlns="http://www.w3.org/2000/svg">
<path d="M3.089 1.38755C2.75075 0.631321 1.8635 0.292481 1.10728 0.630729C0.351048 0.968976 0.0122079 1.85622 0.350455 2.61245L3.089 1.38755ZM81.5991 56.1052C82.2524 55.5958 82.3691 54.6532 81.8597 53.9999L73.5591 43.3533C73.0498 42.7 72.1072 42.5833 71.4539 43.0927C70.8006 43.602 70.6839 44.5446 71.1932 45.1979L78.5715 54.6615L69.1079 62.0399C68.4546 62.5492 68.3379 63.4918 68.8472 64.1451C69.3566 64.7984 70.2992 64.9151 70.9525 64.4058L81.5991 56.1052ZM0.350455 2.61245C9.6288 23.3563 20.0692 35.7 33.117 43.4089C46.11 51.0855 61.5278 54.0627 80.4925 56.4108L80.8611 53.4336C61.9228 51.0887 47.0559 48.1598 34.6431 40.826C22.2851 33.5247 12.1985 21.7538 3.089 1.38755L0.350455 2.61245Z" fill="black"/>
</svg>
