<svg width="80" height="75" viewBox="0 0 80 75" fill="none" xmlns="http://www.w3.org/2000/svg">
<path d="M40 75C62.0914 75 80 58.2107 80 37.5C80 16.7893 62.0914 0 40 0C17.9086 0 0 16.7893 0 37.5C0 58.2107 17.9086 75 40 75Z" fill="#2D95E4"/>
<g clip-path="url(#clip0_18_182)">
<path d="M57.0001 35.1069C55.9785 36.102 54.9543 37.0991 53.9234 38.1032C49.865 34.1348 45.8029 30.1629 41.6964 26.1481V57H37.3007V26.237C33.2341 30.2139 29.1725 34.1868 25.1151 38.1552C24.0301 37.0921 23.0049 36.088 22.0006 35.1039C27.8243 29.4111 33.6685 23.6988 39.4988 18C45.3128 23.6828 51.1524 29.3906 57.0001 35.1069Z" fill="white"/>
</g>
<defs>
<clipPath id="clip0_18_182">
<rect width="35" height="39" fill="white" transform="translate(22 18)"/>
</clipPath>
</defs>
</svg>
