<svg width="38" height="23" viewBox="0 0 38 23" fill="none" xmlns="http://www.w3.org/2000/svg">
<path d="M2 10.1855C1.17157 10.1855 0.5 10.8571 0.5 11.6855C0.5 12.514 1.17157 13.1855 2 13.1855L2 10.1855ZM37.0607 12.7462C37.6464 12.1604 37.6464 11.2107 37.0607 10.6249L27.5147 1.07894C26.9289 0.493156 25.9792 0.493156 25.3934 1.07894C24.8076 1.66473 24.8076 2.61448 25.3934 3.20026L33.8787 11.6855L25.3934 20.1708C24.8076 20.7566 24.8076 21.7064 25.3934 22.2921C25.9792 22.8779 26.9289 22.8779 27.5147 22.2921L37.0607 12.7462ZM2 13.1855L36 13.1855L36 10.1855L2 10.1855L2 13.1855Z" fill="#2D95E4"/>
</svg>
