<svg width="44" height="49" viewBox="0 0 44 49" fill="none" xmlns="http://www.w3.org/2000/svg">
<path d="M40.5639 1.64089C40.7622 0.836556 41.575 0.345291 42.3794 0.54362C43.1837 0.74195 43.675 1.55477 43.4766 2.35911L40.5639 1.64089ZM1.41927 41.9697C0.685755 41.5847 0.403243 40.6779 0.788268 39.9444L7.0626 27.9911C7.44762 27.2576 8.35438 26.975 9.0879 27.3601C9.82141 27.7451 10.1039 28.6519 9.7189 29.3854L4.14172 40.0106L14.7669 45.5878C15.5004 45.9728 15.783 46.8795 15.3979 47.6131C15.0129 48.3466 14.1061 48.6291 13.3726 48.2441L1.41927 41.9697ZM43.4766 2.35911C40.2768 15.3361 35.5049 23.6501 28.677 29.5484C21.8972 35.4052 13.2297 38.7502 2.56261 42.0737L1.67023 39.2095C12.3119 35.8939 20.446 32.6944 26.7158 27.2782C32.9375 21.9036 37.4631 14.2163 40.5639 1.64089L43.4766 2.35911Z" fill="black"/>
</svg>
