<svg width="58" height="58" viewBox="0 0 58 58" fill="none" xmlns="http://www.w3.org/2000/svg">
<path d="M30.5 14.5C30.5 13.6716 29.8284 13 29 13C28.1716 13 27.5 13.6716 27.5 14.5L30.5 14.5ZM27.9393 45.5273C28.5251 46.1131 29.4749 46.1131 30.0607 45.5273L39.6066 35.9814C40.1924 35.3956 40.1924 34.4459 39.6066 33.8601C39.0208 33.2743 38.0711 33.2743 37.4853 33.8601L29 42.3453L20.5147 33.8601C19.9289 33.2743 18.9792 33.2743 18.3934 33.8601C17.8076 34.4459 17.8076 35.3956 18.3934 35.9814L27.9393 45.5273ZM27.5 14.5L27.5 44.4667L30.5 44.4667L30.5 14.5L27.5 14.5Z" fill="black"/>
<circle cx="29" cy="29" r="27.5" stroke="black" stroke-width="3"/>
</svg>
