<svg width="72" height="59" viewBox="0 0 72 59" fill="none" xmlns="http://www.w3.org/2000/svg">
<path d="M1.52274 55.6932C0.737362 55.9568 0.314367 56.8071 0.577952 57.5925C0.841537 58.3779 1.69189 58.8009 2.47726 58.5373L1.52274 55.6932ZM67.0277 1.46318C66.7313 0.689602 65.8639 0.302777 65.0903 0.599192L52.484 5.42951C51.7105 5.72592 51.3236 6.59332 51.6201 7.36691C51.9165 8.14049 52.7839 8.52731 53.5575 8.2309L64.763 3.93729L69.0566 15.1429C69.3531 15.9164 70.2205 16.3033 70.994 16.0069C71.7676 15.7104 72.1544 14.843 71.858 14.0695L67.0277 1.46318ZM2.47726 58.5373C21.3496 52.2034 34.1687 45.7596 43.9431 37.0703C53.7282 28.3715 60.3458 17.5252 66.997 2.61082L64.2571 1.38895C57.6825 16.1317 51.2767 26.5368 41.9499 34.8282C32.6123 43.1292 20.2307 49.4145 1.52274 55.6932L2.47726 58.5373Z" fill="black"/>
</svg>
