<svg width="36" height="36" viewBox="0 0 36 36" fill="none" xmlns="http://www.w3.org/2000/svg">
<g clip-path="url(#clip0_1178_1833)">
<path d="M0 19.4871V16.5356C0.109925 16.4961 0.0657671 16.3994 0.0732834 16.3262C0.157841 15.5345 0.265887 14.7466 0.458491 13.9738C1.80202 8.57211 4.93066 4.55093 9.87071 1.98345C13.4954 0.0996405 17.3578 -0.433762 21.3565 0.34756C26.5286 1.35896 30.5347 4.14806 33.3205 8.61343C35.673 12.3848 36.4491 16.513 35.7576 20.8958C35.2146 24.3413 33.7517 27.3783 31.417 29.9711C28.527 33.181 24.9408 35.1333 20.6622 35.802C20.1962 35.8743 19.7189 35.863 19.2623 36.0001H16.5207C16.4822 35.8893 16.3845 35.9334 16.3121 35.9259C12.818 35.57 9.66683 34.3464 6.91401 32.1583C3.18313 29.1926 0.934833 25.3508 0.191664 20.6357C0.131534 20.2525 0.16066 19.8534 0 19.4871ZM24.0078 7.86967C23.1998 7.86967 22.3928 7.86403 21.5848 7.87061C20.338 7.88188 19.4765 8.7496 19.4727 9.99765C19.468 11.5772 19.469 13.1567 19.4727 14.7363C19.4755 16.0228 20.339 16.8868 21.6327 16.8915C23.2008 16.8971 24.7698 16.8971 26.3379 16.8915C27.6213 16.8877 28.4884 16.0529 28.5025 14.7776C28.5195 13.1746 28.5204 11.5716 28.5025 9.96947C28.4884 8.70922 27.625 7.87906 26.3613 7.87061C25.5768 7.86591 24.7933 7.87061 24.0088 7.87061L24.0078 7.86967ZM14.9836 22.2011C14.9714 21.8546 14.8136 21.5973 14.496 21.4545C14.1503 21.2996 13.8252 21.3588 13.5565 21.6208C12.9702 22.1936 12.383 22.7674 11.8202 23.3618C11.6286 23.5647 11.5346 23.5271 11.3636 23.3496C10.829 22.7918 10.2747 22.2528 9.72884 21.7053C9.56912 21.5456 9.39625 21.4113 9.16136 21.3832C8.80716 21.3418 8.47175 21.5081 8.30545 21.8123C8.13258 22.1269 8.17955 22.5279 8.45953 22.8153C9.03922 23.4116 9.62643 24.0004 10.224 24.5789C10.3828 24.732 10.3734 24.8118 10.2202 24.9592C9.65556 25.5039 9.10405 26.0627 8.55161 26.6195C8.126 27.0487 8.09406 27.5586 8.46329 27.9164C8.82219 28.2639 9.32202 28.2282 9.7373 27.8169C10.27 27.29 10.8074 26.766 11.3232 26.2232C11.5224 26.0138 11.6361 25.964 11.8616 26.2092C12.3774 26.7688 12.9279 27.2957 13.4719 27.8291C13.8853 28.2348 14.3955 28.2601 14.7469 27.9061C15.0983 27.5511 15.0663 27.0468 14.6576 26.6336C14.1061 26.0758 13.5546 25.517 12.9909 24.9714C12.833 24.8184 12.8124 24.732 12.9843 24.5676C13.5508 24.0248 14.0977 23.4614 14.6539 22.9082C14.8512 22.712 15.0043 22.4979 14.9874 22.2011H14.9836ZM9.43007 11.5415C9.11345 11.5415 8.79776 11.5434 8.48114 11.5415C8.2923 11.5396 8.10721 11.5443 7.93528 11.6373C7.59423 11.8214 7.42699 12.2036 7.51906 12.5923C7.60456 12.9558 7.924 13.2168 8.34679 13.2244C9.07305 13.2375 9.7993 13.2347 10.5246 13.2244C10.7097 13.2215 10.7604 13.2769 10.7576 13.4591C10.7473 14.1494 10.751 14.8405 10.7539 15.5308C10.7567 16.1168 11.0855 16.4802 11.6013 16.4764C12.1134 16.4727 12.4366 16.1064 12.4394 15.5176C12.4422 14.8621 12.4516 14.2066 12.4337 13.5512C12.4272 13.3004 12.4741 13.2103 12.7513 13.2197C13.4184 13.2441 14.0864 13.2319 14.7534 13.2262C15.3322 13.2206 15.7005 12.8788 15.6949 12.366C15.6892 11.8655 15.3303 11.5443 14.7638 11.5415C14.0732 11.5378 13.3817 11.534 12.6912 11.5453C12.4948 11.5481 12.4319 11.4964 12.4356 11.2945C12.4478 10.6278 12.4413 9.96008 12.4403 9.29333C12.4394 8.65944 12.1087 8.26596 11.5863 8.27254C11.0761 8.27911 10.7548 8.66414 10.7539 9.27642C10.752 9.94412 10.7435 10.6109 10.7595 11.2776C10.7651 11.5002 10.6975 11.5565 10.4842 11.5453C10.1338 11.5274 9.78145 11.5406 9.43007 11.5406V11.5415ZM23.9702 27.5812C24.9173 27.5812 25.8643 27.5849 26.8114 27.5802C27.4005 27.5774 27.7669 27.2497 27.7678 26.7426C27.7678 26.2401 27.3892 25.8974 26.8133 25.8964C24.9304 25.8936 23.0476 25.8936 21.1648 25.8964C20.5879 25.8974 20.2065 26.2401 20.2046 26.7407C20.2037 27.2384 20.5823 27.5774 21.1629 27.5812C22.0987 27.5859 23.0335 27.5821 23.9693 27.5821L23.9702 27.5812ZM23.9496 23.6332C24.8966 23.6332 25.8437 23.6351 26.7917 23.6332C27.3939 23.6323 27.7763 23.2942 27.7688 22.7777C27.7613 22.2772 27.3836 21.9494 26.7992 21.9485C24.9276 21.9466 23.057 21.9466 21.1855 21.9485C20.587 21.9485 20.1971 22.2941 20.2065 22.8049C20.2159 23.3045 20.5964 23.6323 21.178 23.6332C22.1015 23.636 23.026 23.6332 23.9496 23.6332Z" fill="#2D95E4"/>
<path d="M21.1592 12.3546C21.1592 11.5826 21.1563 10.8098 21.1601 10.0378C21.162 9.6622 21.2625 9.5589 21.6421 9.55796C23.2111 9.55514 24.7792 9.55984 26.3482 9.5542C26.6742 9.55326 26.8208 9.69882 26.8198 10.0181C26.8179 11.5977 26.8198 13.1772 26.8189 14.7568C26.8189 15.0554 26.6789 15.2075 26.3679 15.2075C24.7876 15.2038 23.2073 15.2038 21.627 15.2075C21.3048 15.2075 21.1554 15.0648 21.1582 14.7417C21.1629 13.9463 21.1601 13.15 21.1601 12.3546H21.1592Z" fill="#2D95E4"/>
</g>
<defs>
<clipPath id="clip0_1178_1833">
<rect width="36" height="36" fill="white"/>
</clipPath>
</defs>
</svg>
