<svg width="150" height="126" viewBox="0 0 150 126" fill="none" xmlns="http://www.w3.org/2000/svg">
<path d="M0 34.2213C0.0742478 34.1665 0.187572 34.1273 0.218835 34.0529C2.50098 28.5803 4.92771 26.9441 10.7972 26.9441C15.8734 26.9441 20.9535 26.9245 26.0297 26.9636C26.9676 26.9715 27.3701 26.7288 27.585 25.7384C29.0113 19.1658 30.5119 12.6128 31.9969 6.05585C32.9113 2.02384 35.4513 0 39.5975 0C58.0031 0 76.4087 0 94.8144 0C98.9175 0 101.387 1.94946 102.31 5.96191C103.791 12.421 105.268 18.88 106.678 25.3547C106.94 26.5487 107.362 26.9989 108.664 26.9793C113.935 26.8932 119.207 26.9362 124.482 26.9441C130.442 26.9519 134.377 30.886 134.408 36.8597C134.42 39.2515 134.459 41.6433 134.388 44.0351C134.357 45.0725 134.627 45.5618 135.713 45.8476C139.672 46.8849 143.591 48.0554 147.53 49.1671C148.421 49.4177 149.293 49.6917 150 50.3298V86.6492C149.683 86.8254 149.742 87.1425 149.711 87.4204C148.527 97.8723 143.884 106.488 136.014 113.441C130.543 118.271 124.103 121.536 117.773 124.993C117.034 125.396 116.374 125.22 115.701 124.844C112.259 122.918 108.695 121.199 105.389 119.031C104.529 118.467 103.673 118.259 102.657 118.259C72.4502 118.279 42.2431 118.275 12.032 118.275C5.85776 118.275 2.43455 114.854 2.43455 108.673C2.43455 93.8912 2.32904 79.1058 2.50489 64.3244C2.55178 60.4255 0.824541 57.1372 0 53.5515C0 47.1081 0 40.6647 0 34.2213ZM131.251 44.4227C131.251 41.6159 131.27 39.0323 131.247 36.4447C131.211 32.7102 128.605 30.1149 124.85 30.1149C86.4205 30.107 47.9953 30.107 9.56624 30.1149C5.76007 30.1149 3.20828 32.6319 3.17311 36.4134C3.14185 39.78 3.14967 43.1504 3.17311 46.517C3.18874 48.7091 2.98946 50.9209 3.3646 53.0935C5.21298 63.8155 13.5561 70.8148 24.4627 70.8226C34.1813 70.8265 43.896 70.8265 53.6147 70.8226C54.8261 70.8226 56.3853 71.2101 57.159 70.6112C57.9953 69.9653 57.331 68.3329 57.4443 67.135C57.4482 67.0881 57.4443 67.0372 57.4443 66.9902C57.5108 64.7432 58.7691 63.4867 61.0356 63.4749C65.2364 63.4553 69.4334 63.4553 73.6342 63.4749C75.9164 63.4867 77.1473 64.6845 77.2528 66.9706C77.2919 67.8475 77.3154 68.7322 77.2489 69.6051C77.1786 70.5212 77.4287 70.9283 78.4408 70.8656C79.8046 70.7795 81.1801 70.7717 82.5401 70.8656C83.6069 70.94 83.8218 70.5486 83.814 69.5503C83.7632 63.839 83.7749 58.1276 83.7788 52.4162C83.7788 49.9305 83.8335 49.8639 86.1899 49.1828C95.6468 46.4504 105.111 43.7493 114.553 40.9661C116.163 40.4924 117.671 40.3123 119.23 40.9739C121.762 42.0504 124.619 41.9095 127.116 43.0604C128.413 43.6593 129.762 43.9921 131.258 44.4187L131.251 44.4227ZM99.7226 115.108C96.9285 112.85 94.5994 110.7 92.669 108.179C92.0008 107.31 91.313 106.993 90.2266 106.997C77.5342 107.036 64.8378 107.021 52.1454 107.021C45.9437 107.021 39.7421 107.04 33.5444 107.013C30.3048 106.997 28.4682 105.114 28.4525 101.904C28.4408 99.5595 28.5893 97.2069 28.4174 94.8777C28.1555 91.3937 30.0625 88.8727 34.3259 88.9118C50.4377 89.0567 66.5494 88.9549 82.6612 89.0019C83.9898 89.0019 84.3103 88.6848 84.1501 87.3734C83.7241 83.8816 83.7046 80.3624 83.7476 76.8471C83.7827 73.9934 83.7906 73.966 81.0043 74.009C79.8046 74.0286 78.2767 73.4727 77.4873 74.2713C76.7644 75.0033 77.3115 76.5026 77.2685 77.6614C77.1708 80.1549 75.9281 81.3724 73.3841 81.3763C69.9648 81.388 66.5494 81.3763 63.1301 81.3763C57.9758 81.3763 57.3896 80.8517 57.4873 75.6688C57.5147 74.1852 57.0379 73.9503 55.6897 73.9582C45.1934 74.013 34.6972 74.0091 24.197 73.9817C17.8312 73.966 12.2587 71.8482 7.55764 67.5226C6.93239 66.9511 6.34623 66.3404 5.58422 65.5927C5.58422 66.3169 5.58422 66.7984 5.58422 67.276C5.58422 81.0396 5.66237 94.8072 5.53341 108.571C5.49824 112.208 7.4365 115.179 12.1844 115.159C40.7464 115.05 69.3083 115.104 97.8703 115.104H99.7343L99.7226 115.108ZM139.093 73.4023C139.093 68.2585 139.054 63.8664 139.121 59.4742C139.136 58.382 138.765 57.9554 137.757 57.6735C131.145 55.818 124.545 53.9155 117.948 51.9974C117.261 51.7977 116.651 51.7742 115.955 51.9739C109.218 53.9312 102.478 55.865 95.7288 57.7792C94.9746 57.9945 94.619 58.2685 94.6229 59.1532C94.6737 67.2055 94.5721 75.2617 94.7128 83.3101C94.83 89.9257 96.8738 95.9464 101.043 101.176C105.158 106.336 110.621 109.702 116.315 112.779C116.991 113.147 117.429 112.806 117.929 112.552C121.293 110.853 124.42 108.782 127.362 106.43C134.232 100.945 138.183 93.8795 138.937 85.0834C139.293 80.9418 138.984 76.7884 139.093 73.3945V73.4023ZM67.1708 26.9441C75.9086 26.9441 84.6424 26.9284 93.3802 26.9636C94.4119 26.9636 94.701 26.8149 94.4236 25.6796C93.4232 21.6124 92.5283 17.5177 91.6491 13.427C91.442 12.4679 91.0864 12.0921 90.0195 12.0961C74.7909 12.1391 59.5623 12.1352 44.3337 12.0961C43.2474 12.0961 42.9465 12.5227 42.7394 13.4779C41.8797 17.4786 41.0082 21.4793 40.0039 25.4409C39.6639 26.7836 40.0234 26.9754 41.2544 26.9675C49.8945 26.9245 58.5307 26.9441 67.1708 26.9441ZM89.324 103.893C89.2653 103.592 89.2771 103.439 89.2106 103.325C87.3075 100.061 85.9125 96.5844 85.0567 92.9086C84.8652 92.0866 84.3884 92.1061 83.7827 92.1061C67.0379 92.1061 50.2931 92.114 33.5483 92.1022C32.2079 92.1022 31.5748 92.619 31.6061 94.0165C31.6569 96.3104 31.6178 98.6044 31.6178 100.898C31.6178 103.783 31.7272 103.897 34.5526 103.897C47.3935 103.897 60.2306 103.897 73.0715 103.897C78.4408 103.897 83.8101 103.897 89.324 103.897V103.893ZM67.331 3.16298C58.0109 3.16298 48.6909 3.16298 39.3709 3.16298C37.0301 3.16298 35.7288 4.1886 35.1817 6.42774C34.8144 7.94268 34.49 9.46545 34.1305 10.9843C33.6616 12.952 34.4562 13.9359 36.5143 13.9359C38.4082 13.9359 39.5793 13.0121 40.0274 11.1644C40.5276 9.10531 40.6682 8.99179 42.7863 8.99179C58.304 8.99179 73.8218 8.99179 89.3396 8.99179C92.1584 8.99179 93.9495 10.3293 94.7128 13.0042C94.8925 13.6423 95.1309 13.9985 95.8968 13.9555C97.1629 13.885 98.4369 13.8733 99.6991 13.9555C100.821 14.0299 100.887 13.5797 100.649 12.6558C100.156 10.722 99.7538 8.76474 99.3161 6.81528C98.7065 4.10639 97.5186 3.15907 94.705 3.15907C85.5803 3.15907 76.4557 3.15907 67.3271 3.15907L67.331 3.16298ZM146.843 54.2248C145.608 55.1329 144.685 55.9198 143.665 56.5422C142.505 57.2507 142.11 58.1354 142.126 59.5251C142.2 67.3308 142.169 75.1404 142.153 82.95C142.141 89.1546 140.402 94.8581 137.147 100.123C133.361 106.246 127.878 110.552 121.68 113.867C118.972 115.316 117.995 116.964 118.382 119.849C118.519 120.855 118.652 121.004 119.531 120.538C124.408 117.946 129.164 115.179 133.368 111.558C140.301 105.588 144.791 98.2207 146.288 89.0998C147.093 84.1948 146.784 79.2702 146.827 74.3496C146.882 67.7653 146.839 61.1771 146.839 54.2248H146.843ZM87.1161 54.307C87.034 54.6789 86.9793 54.812 86.9793 54.945C86.9988 65.0486 86.8191 75.1599 87.1161 85.2556C87.3271 92.4702 89.7304 99.1015 94.1696 104.907C99.6796 112.117 107.065 116.854 115.041 120.82C115.1 120.851 115.217 120.765 115.358 120.718C115.358 119.614 115.283 118.487 115.377 117.371C115.479 116.2 115.076 115.57 113.99 115.018C109.621 112.799 105.576 110.062 101.966 106.747C95.1153 100.456 91.8288 92.5368 91.696 83.3218C91.5787 75.2187 91.6608 67.1155 91.6491 59.0123C91.6491 58.4055 91.8093 57.7714 91.1372 57.3016C89.8242 56.3817 88.562 55.3913 87.1161 54.307ZM67.2763 78.1624C67.2763 78.1624 67.2763 78.1742 67.2763 78.1781C69.0778 78.1781 70.8871 78.088 72.6768 78.2094C73.9078 78.2916 74.1344 77.8101 74.1149 76.7219C74.0602 73.8016 74.0641 70.8813 74.1266 67.961C74.1501 66.9824 73.9156 66.5831 72.8683 66.5909C69.1208 66.6183 65.3732 66.5948 61.6256 66.5322C60.7229 66.5165 60.5901 66.9276 60.5979 67.6753C60.6213 70.8382 60.6291 74.0051 60.5979 77.1681C60.5901 77.9197 60.8089 78.1937 61.5826 78.1781C63.4818 78.135 65.381 78.1624 67.2802 78.1624H67.2763ZM144.982 51.692C137.077 49.4137 129.512 47.2333 121.946 45.049C118.367 44.0155 118.402 44.0155 118.39 47.7187C118.39 48.6778 118.699 49.0614 119.609 49.3159C126.166 51.1518 132.708 53.0426 139.258 54.9176C139.773 55.0664 140.285 55.2543 140.789 54.8668C142.095 53.8685 143.408 52.8821 144.982 51.692ZM88.7886 51.6529C90.2345 52.745 91.4146 53.5984 92.5479 54.5144C93.1848 55.0272 93.7827 55.0938 94.5682 54.8668C100.363 53.1717 106.17 51.5276 111.973 49.86C115.463 48.8579 115.432 48.854 115.361 45.233C115.342 44.2661 115.119 44.0899 114.174 44.3718C110.633 45.4404 107.065 46.4152 103.505 47.433C98.6987 48.807 93.8921 50.1888 88.7847 51.6529H88.7886ZM33.431 26.9441C34.1618 26.9441 34.8886 26.9167 35.6194 26.9519C36.2485 26.9832 36.5533 26.7992 36.7018 26.1142C37.2919 23.3622 37.9484 20.6298 38.5971 17.8896C38.7534 17.2398 38.5424 17.0049 37.8859 17.0206C36.526 17.048 35.1622 17.0715 33.8023 17.0128C33.0012 16.9775 32.6886 17.3024 32.5322 18.0462C32.1024 20.0857 31.6139 22.1135 31.1372 24.1451C30.7021 26.0137 31.4654 26.9467 33.4271 26.9441H33.431ZM100.785 26.9441C101.469 26.9441 102.157 26.8971 102.833 26.9558C103.689 27.0263 103.826 26.6544 103.65 25.9184C103.005 23.2683 102.368 20.6142 101.778 17.9523C101.626 17.2555 101.344 16.9658 100.614 16.9971C99.3474 17.048 98.0735 17.0637 96.8074 16.9971C95.7835 16.9423 95.6819 17.3729 95.8929 18.2263C96.3775 20.164 96.8191 22.1095 97.2528 24.059C97.8898 26.948 97.882 26.948 100.785 26.948V26.9441Z" fill="#737373"/>
<path d="M134.85 68.2974C134.896 69.4522 134.435 70.5444 133.607 71.5113C128.14 77.8764 122.692 84.2571 117.21 90.6105C114.92 93.2646 112.435 93.4642 109.656 91.3034C106.651 88.9703 103.622 86.6685 100.656 84.2845C98.6987 82.7109 98.2298 80.3269 99.3278 78.2483C100.363 76.287 102.595 75.2927 104.783 75.8212C105.608 76.0209 106.295 76.4749 106.952 76.9956C108.406 78.1465 109.914 79.2308 111.301 80.4561C112.196 81.2468 112.704 81.1998 113.486 80.2721C117.722 75.2301 122.02 70.2429 126.307 65.2401C127.737 63.5725 129.785 62.997 131.712 63.6899C133.646 64.3867 134.842 66.0896 134.853 68.2974H134.85ZM101.891 80.5187C101.841 81.3212 102.442 81.7675 103.021 82.2176C105.826 84.402 108.632 86.5863 111.45 88.7628C112.985 89.9489 113.626 89.8746 114.889 88.4144C120.27 82.1785 125.651 75.9426 131.028 69.7066C132.052 68.5166 132.169 67.4636 131.372 66.759C130.559 66.0426 129.515 66.301 128.511 67.4636C123.896 72.8148 119.285 78.17 114.67 83.5212C113.017 85.4393 112.704 85.4707 110.735 83.944C108.695 82.3625 106.655 80.781 104.607 79.2034C104.021 78.7532 103.392 78.5927 102.712 79.0116C102.169 79.3443 101.88 79.8141 101.891 80.5187Z" fill="#737373"/>
</svg>
