<svg width="136" height="157" viewBox="0 0 136 157" fill="none" xmlns="http://www.w3.org/2000/svg">
<path d="M108.804 0C109.464 0.330431 110.156 0.611914 110.779 0.999457C113.23 2.51699 114.367 4.7321 114.358 7.62847C114.33 16.4808 114.346 25.329 114.346 34.1813C114.346 42.4216 114.383 50.662 114.31 58.9024C114.297 60.2364 114.745 60.7177 115.971 61.0522C121.689 62.6269 127.378 64.3035 133.075 65.9475C135.119 66.539 135.274 66.7511 135.278 68.9459C135.282 79.8827 135.29 90.8196 135.282 101.756C135.274 117.817 128.693 130.512 115.723 139.891C114.705 140.625 114.249 141.363 114.318 142.636C114.428 144.664 114.363 146.703 114.342 148.739C114.297 153.271 111.296 156.286 106.776 156.29C96.5707 156.306 86.3614 156.294 76.1562 156.294C53.5101 156.294 30.86 156.294 8.21388 156.294C2.94839 156.294 0.0488996 153.369 0.0488996 148.058C0.0488996 101.769 0.0774077 55.4798 3.39051e-05 9.19088C-0.0081107 4.68722 1.44978 1.53385 5.80714 0C40.1407 0 74.4743 0 108.808 0H108.804ZM82.0163 140.042C82.004 139.838 82.0163 139.772 81.9918 139.748C81.6457 139.454 81.3036 139.16 80.9452 138.887C75.977 135.077 71.7215 130.622 68.5613 125.176C64.2569 117.764 62.5995 109.699 62.7013 101.202C62.7298 98.9049 62.7013 98.9049 60.3516 98.9049C49.0794 98.9049 37.8032 98.9049 26.5311 98.9049C26.075 98.9049 25.6148 98.9294 25.1628 98.8845C24.2913 98.7907 23.7782 98.3053 23.7294 97.3996C23.6764 96.4369 24.1407 95.8372 25.0732 95.6659C25.566 95.5761 26.0832 95.6129 26.5922 95.6129C38.0679 95.6129 49.5437 95.5925 61.0235 95.6373C62.2981 95.6414 62.8886 95.4252 62.742 93.9934C62.6036 92.6839 62.6199 91.3417 62.742 90.0322C62.8723 88.6208 62.3796 88.2536 60.9787 88.2618C49.503 88.3189 38.0272 88.2944 26.5474 88.2944C24.3565 88.2944 23.6561 87.911 23.7416 86.6627C23.876 84.6842 25.4194 85.1247 26.6166 85.1125C29.9152 85.0758 33.2178 85.1003 36.5205 85.1003C44.7465 85.1003 52.9726 85.0758 61.1986 85.1247C62.3918 85.1329 62.8275 84.8229 62.7379 83.595C62.6361 82.1794 62.6239 80.7394 62.7379 79.3279C62.8479 77.998 62.3266 77.7492 61.105 77.7533C49.6292 77.7981 38.1535 77.7778 26.6736 77.7778C24.4298 77.7778 23.7008 77.3535 23.7253 76.0685C23.7456 74.8447 24.4013 74.4816 26.6044 74.4816C37.9295 74.4816 49.2546 74.4898 60.5756 74.4775C63.0149 74.4775 62.681 74.8365 62.6972 72.4215C62.7054 71.1487 62.5343 69.8637 62.685 68.6113C62.8357 67.3631 62.4325 67.1305 61.2638 67.1346C49.6333 67.1754 38.0069 67.1591 26.3764 67.1591C25.8714 67.1591 25.3501 67.1917 24.8615 67.0938C24.1366 66.947 23.7416 66.433 23.6968 65.6823C23.652 64.895 23.9045 64.2301 24.7189 64.0302C25.2972 63.8874 25.9203 63.8752 26.523 63.8752C41.0977 63.867 55.6725 63.8629 70.2473 63.8793C71.4771 63.8793 72.6581 63.7283 73.8431 63.3816C81.6742 61.093 89.5134 58.8249 97.3607 56.5812C98.1181 56.365 98.8837 55.9489 99.7267 56.3283C100.83 56.8219 100.981 56.2508 100.977 55.2921C100.957 41.7608 100.952 28.2294 100.985 14.6981C100.985 13.7068 100.724 13.4049 99.7185 13.4171C94.5386 13.4661 89.3586 13.4702 84.1786 13.4171C83.0873 13.4049 82.8511 13.7394 82.847 14.7837C82.8307 19.0548 80.2529 21.6086 75.9933 21.6126C63.4995 21.629 51.0097 21.6249 38.5159 21.6126C34.2115 21.6086 31.6866 19.1242 31.7111 14.796C31.7192 13.5599 31.2713 13.413 30.2165 13.4212C25.1913 13.4702 20.162 13.5069 15.1368 13.4049C13.6667 13.3763 13.4346 13.8699 13.4346 15.1917C13.4671 52.0735 13.4631 88.9512 13.4631 125.833C13.4631 130.104 13.4875 134.379 13.4427 138.65C13.4305 139.65 13.63 140.078 14.7581 140.074C37.1517 140.042 59.5453 140.05 82.0163 140.05V140.042ZM123.415 91.5539C123.415 85.961 123.399 81.335 123.432 76.7089C123.436 75.9135 123.318 75.4362 122.422 75.1832C114.819 73.0212 107.232 70.8183 99.6493 68.591C99.0629 68.4196 98.5783 68.493 98.0326 68.6521C90.5925 70.8183 83.1524 72.9926 75.696 75.1017C74.6739 75.3913 74.3807 75.8319 74.3848 76.8844C74.4296 85.6306 74.3155 94.3768 74.4295 103.119C74.5314 111.131 77.2516 118.221 82.4886 124.311C86.8786 129.419 92.5472 132.776 98.3625 135.946C98.9896 136.288 99.4213 136.023 99.91 135.779C104.703 133.372 109.077 130.357 112.986 126.677C118.915 121.097 122.352 114.252 123.191 106.138C123.725 100.965 123.248 95.772 123.415 91.562V91.5539ZM3.33933 78.1612C3.33933 101.557 3.33933 124.956 3.33933 148.351C3.33933 151.411 4.79721 152.99 7.7089 152.99C40.7149 153.002 73.7169 153.002 106.723 152.99C109.525 152.99 111.031 151.496 111.137 148.674C111.19 147.25 111.088 145.822 111.166 144.402C111.239 143.081 110.926 142.926 109.777 143.599C106.804 145.345 103.746 146.952 100.757 148.669C99.4905 149.4 98.3869 149.453 97.0756 148.682C93.7526 146.728 90.3523 144.908 86.9804 143.044C86.5732 142.82 86.2066 142.289 85.6406 142.779C84.9524 143.378 84.1094 143.223 83.3072 143.223C59.8507 143.228 36.3901 143.228 12.9337 143.223C10.4944 143.223 10.25 142.979 10.25 140.49C10.25 97.9667 10.25 55.4471 10.25 12.9235C10.25 10.4636 10.5921 10.1291 13.0803 10.1291C18.867 10.1291 24.6578 10.1047 30.4446 10.1495C31.4382 10.1577 31.7762 9.8803 31.7192 8.87677C31.6378 7.51017 31.6174 6.12318 31.7233 4.76066C31.821 3.545 31.4016 3.24312 30.2125 3.25128C22.9515 3.30431 15.6906 3.27576 8.42971 3.27984C4.63432 3.27984 3.33118 4.5934 3.33118 8.41579C3.33118 31.6602 3.33118 54.9046 3.33118 78.149L3.33933 78.1612ZM111.154 32.9738C111.154 24.8394 111.154 16.7092 111.154 8.5749C111.154 8.01602 111.154 7.45306 111.072 6.90234C110.755 4.64644 109.35 3.32063 107.085 3.3084C99.3724 3.27168 91.6595 3.3084 83.9465 3.27168C83.0465 3.27168 82.8266 3.59395 82.8592 4.42206C82.9122 5.84169 82.9651 7.27765 82.847 8.68912C82.737 9.97005 83.2705 10.1699 84.3985 10.1618C90.1323 10.1128 95.8661 10.1373 101.6 10.1414C103.832 10.1414 104.247 10.5656 104.247 12.8134C104.247 25.8756 104.247 38.9419 104.251 52.0041C104.251 53.8317 103.636 56.1243 104.504 57.3604C105.469 58.7392 107.993 58.5638 109.781 59.2369C110.995 59.6938 111.194 59.2981 111.186 58.1314C111.141 49.7441 111.162 41.3569 111.162 32.9697L111.154 32.9738ZM97.2752 145.031C97.2752 143.313 97.2141 141.8 97.2955 140.294C97.3485 139.344 97.0064 138.838 96.1675 138.414C92.8119 136.717 89.6396 134.706 86.6017 132.491C76.4698 125.103 71.2491 115.165 71.2165 102.568C71.1961 93.871 71.2165 85.1737 71.2124 76.4764C71.2124 75.9828 71.4323 75.3587 71.0047 75.016C69.388 73.7024 67.7184 72.4582 65.8899 71.0508C65.8899 82.2651 65.8329 93.1 65.9225 103.931C65.951 107.537 66.5741 111.102 67.5677 114.594C70.3369 124.332 76.4413 131.581 84.4596 137.406C88.4383 140.299 92.6735 142.767 97.2752 145.035V145.031ZM131.983 71.0835C130.46 72.2257 129.247 73.221 127.948 74.0818C127.003 74.7059 126.657 75.4199 126.665 76.5784C126.722 84.9657 126.714 93.3529 126.685 101.74C126.653 111.992 123.44 120.979 116.04 128.272C111.846 132.409 106.996 135.624 101.84 138.406C101.38 138.655 100.631 138.72 100.61 139.393C100.553 141.229 100.59 143.064 100.59 145.067C107.02 141.832 112.917 138.291 118.093 133.645C126.103 126.449 130.782 117.564 131.735 106.766C132.211 101.385 131.922 95.9963 131.971 90.6156C132.028 84.215 131.983 77.8145 131.983 71.0875V71.0835ZM57.2607 18.3165C63.4547 18.3165 69.6487 18.3165 75.8467 18.3165C78.5385 18.3165 79.5647 17.313 79.5729 14.6736C79.5851 11.3693 79.5158 8.06089 79.6054 4.75658C79.6421 3.5042 79.2186 3.20233 78.062 3.27168C77.0602 3.33287 76.2051 3.15337 76.2784 4.70354C76.4087 7.39186 76.3272 10.0924 76.311 12.7889C76.2987 14.645 75.9118 15.0326 74.059 15.0326C62.8357 15.0407 51.6165 15.0407 40.3932 15.0326C38.6258 15.0326 38.1412 14.5349 38.129 12.7644C38.1127 10.068 38.0598 7.37147 38.1575 4.67907C38.2023 3.47565 37.7829 3.1697 36.6874 3.28392C35.7834 3.38183 34.7694 2.96164 34.8305 4.63012C34.9608 7.93035 34.8508 11.2428 34.8753 14.5471C34.8956 17.2885 35.9422 18.3165 38.6706 18.3206C44.8646 18.3246 51.0586 18.3206 57.2566 18.3206L57.2607 18.3165ZM57.1467 11.8343C62.0212 11.8343 66.8917 11.8058 71.7662 11.8588C72.8169 11.871 73.1875 11.5936 73.1427 10.5044C73.0612 8.4729 73.0816 6.43729 73.1346 4.40575C73.159 3.53684 72.8699 3.27576 72.0065 3.27984C62.1597 3.30431 52.3129 3.30839 42.466 3.27984C41.5172 3.27984 41.4032 3.68777 41.4154 4.47101C41.452 6.50255 41.4805 8.54225 41.4072 10.5697C41.3706 11.5732 41.676 11.8751 42.6819 11.8629C47.5035 11.8139 52.3251 11.8425 57.1467 11.8425V11.8343ZM129.927 68.5461C129.573 68.3829 129.398 68.2727 129.21 68.2197C120.015 65.5763 110.816 62.9573 101.628 60.2812C100.602 59.9834 100.529 60.3791 100.557 61.1868C100.594 62.2516 100.631 63.3245 100.545 64.3851C100.476 65.2622 100.814 65.6171 101.633 65.8496C109.036 67.9423 116.431 70.0758 123.823 72.2012C124.27 72.3317 124.694 72.4827 125.122 72.1604C126.689 70.9774 128.261 69.7944 129.923 68.542L129.927 68.5461ZM67.8487 68.4563C69.4002 69.6394 70.7889 70.647 72.1205 71.7239C72.8169 72.2869 73.4481 72.4011 74.3399 72.1359C80.6968 70.2553 87.0741 68.4441 93.4431 66.6084C97.32 65.4906 97.2833 65.4865 97.3037 61.4724C97.3077 60.3179 97.1489 59.9794 95.8865 60.3587C90.2667 62.0558 84.6144 63.6386 78.9742 65.2622C75.3417 66.3065 71.7052 67.3508 67.8528 68.4563H67.8487Z" fill="#737373"/>
<path d="M57.3096 35.4121C47.0555 35.4121 36.7974 35.4121 26.5434 35.4121C26.0873 35.4121 25.6271 35.4407 25.1751 35.3917C24.3117 35.2938 23.7783 34.8125 23.7172 33.915C23.6479 32.9482 24.1529 32.3689 25.0651 32.1772C25.5049 32.0874 25.9732 32.12 26.4293 32.12C46.9904 32.12 67.5555 32.12 88.1166 32.12C88.5238 32.12 88.9351 32.0956 89.3342 32.1568C90.2505 32.2995 90.8247 32.838 90.8043 33.7967C90.788 34.7431 90.2383 35.2938 89.2976 35.3917C88.8456 35.4366 88.3854 35.4121 87.9293 35.4121C77.7241 35.4121 67.5189 35.4121 57.3137 35.4121H57.3096Z" fill="#737373"/>
<path d="M57.334 42.7352C67.5433 42.7352 77.7485 42.7352 87.9578 42.7352C88.4139 42.7352 88.874 42.7107 89.3261 42.7556C90.2016 42.8412 90.727 43.3593 90.8003 44.2282C90.8776 45.1869 90.3605 45.7743 89.4442 45.9579C89.0044 46.0477 88.536 46.0232 88.0799 46.0232C67.5107 46.0232 46.9415 46.0232 26.3764 46.0232C25.8226 46.0232 25.2524 46.0028 24.723 45.8641C23.9086 45.6438 23.6642 44.987 23.7131 44.1997C23.7579 43.445 24.1651 42.9514 24.89 42.8004C25.3298 42.7066 25.7981 42.7393 26.2542 42.7393C36.6142 42.7393 46.9741 42.7393 57.334 42.7393V42.7352Z" fill="#737373"/>
<path d="M57.3015 53.3492C67.5556 53.3492 77.8096 53.3492 88.0678 53.3492C88.5727 53.3492 89.0899 53.3248 89.5867 53.4063C90.4093 53.545 90.7921 54.1325 90.8003 54.9239C90.8084 55.7112 90.4419 56.315 89.6234 56.47C89.1306 56.5638 88.6134 56.5393 88.1044 56.5393C67.5433 56.5393 46.9823 56.5393 26.4212 56.5393C25.9651 56.5393 25.5049 56.5516 25.0529 56.5067C24.1407 56.4129 23.7172 55.8417 23.709 54.9606C23.7009 54.0835 24.1 53.4879 25.0163 53.386C25.5171 53.3288 26.0303 53.3492 26.5393 53.3492C36.7934 53.3492 47.0474 53.3492 57.3056 53.3492H57.3015Z" fill="#737373"/>
<path d="M78.6036 99.7286C78.6688 97.7215 79.581 96.1061 81.4746 95.1597C83.4212 94.1847 85.3229 94.405 87.0455 95.7349C89.0124 97.2565 90.9712 98.7944 92.8648 100.406C93.7037 101.12 94.1639 101.116 94.9132 100.234C99.7796 94.507 104.699 88.8244 109.626 83.1499C111.304 81.2204 113.63 80.7186 115.812 81.7099C117.8 82.6114 119.025 84.7042 118.842 86.8907C118.736 88.1553 118.162 89.2119 117.348 90.1542C111.235 97.2198 105.135 104.302 99.0018 111.351C96.6439 114.06 93.9399 114.268 91.0934 112.057C87.6441 109.38 84.2112 106.684 80.762 104.012C79.3896 102.947 78.6606 101.577 78.6118 99.7327L78.6036 99.7286ZM94.7829 110.29C95.6177 110.372 96.1512 109.764 96.6969 109.136C101.6 103.437 106.507 97.7419 111.418 92.0553C112.648 90.6315 113.931 89.2609 115.12 87.8045C115.849 86.9111 115.89 85.8831 114.977 85.0795C114.102 84.3085 113.141 84.2881 112.286 85.21C111.736 85.8056 111.17 86.393 110.64 87.009C105.733 92.7039 100.834 98.4069 95.9231 104.098C94.7381 105.472 94.1598 105.529 92.7182 104.416C90.3848 102.617 88.088 100.781 85.7424 98.9984C84.4922 98.0479 83.4171 98.1254 82.68 99.1085C81.9551 100.071 82.2035 101.156 83.4212 102.107C86.6627 104.636 89.9206 107.145 93.1621 109.674C93.6182 110.029 94.0784 110.306 94.7788 110.294L94.7829 110.29Z" fill="#737373"/>
<path d="M57.2037 9.15794C55.2287 9.15794 53.2536 9.15794 51.2745 9.15794C50.179 9.15794 49.3442 8.81527 49.3238 7.55474C49.3035 6.31868 50.0853 5.86994 51.1971 5.86994C55.2002 5.86179 59.2032 5.86587 63.2063 5.86994C64.2977 5.86994 65.1732 6.2738 65.1773 7.4813C65.1854 8.76631 64.3058 9.17425 63.1249 9.16201C61.1498 9.14161 59.1747 9.15794 57.1956 9.15794H57.2037Z" fill="#737373"/>
</svg>
