<svg width="150" height="159" viewBox="0 0 150 159" fill="none" xmlns="http://www.w3.org/2000/svg">
<path d="M7.16198 158.616C6.88921 158.157 6.36022 158.202 5.94694 158.045C2.35966 156.645 0.0452922 153.429 0.0204953 149.591C-0.0166999 144.014 0.00809692 138.442 0.00809692 132.865C0.00809692 95.4935 0.00809692 58.1176 0.00809692 20.7459C0.00809692 15.989 2.63656 12.4617 6.95947 11.3481C7.10825 11.3108 7.25703 11.257 7.40582 11.2239C8.61259 10.9506 10.2244 11.6544 10.96 10.8306C11.5923 10.1226 11.208 8.56599 11.4394 7.41921C12.3486 2.92317 16.031 0.0127512 20.8002 0.0086112C38.9226 -0.0038088 57.0449 0.0044712 75.1673 0.0044712C79.0397 0.0044712 82.9121 -0.0079488 86.7846 0.0086112C88.9667 0.0210312 91.029 0.546811 92.6242 2.08689C100.572 9.76245 108.35 17.6036 115.987 25.5814C117.781 27.4527 118.355 29.7297 118.351 32.2468C118.339 46.5463 118.351 60.8459 118.33 75.1413C118.33 76.1101 118.578 76.9174 119.049 77.7578C125.24 88.8902 125.253 100.064 119.066 111.188C118.388 112.41 118.384 113.118 119.463 114.028C120.723 115.088 121.831 116.33 122.988 117.51C124.166 118.707 125.162 120.035 127.249 119.688C128.286 119.514 129.266 120.321 130.063 121.116C136.155 127.218 142.267 133.296 148.347 139.411C150.537 141.613 150.55 144.321 148.392 146.552C146.276 148.742 144.119 150.895 141.929 153.011C139.755 155.11 137.271 155.06 135.097 152.895C129.935 147.761 124.794 142.607 119.657 137.452C119.33 137.125 119.087 136.72 118.69 136.206C118.21 137.038 118.372 137.655 118.367 138.227C118.33 144.217 114.693 148.014 108.701 148.192C107.568 148.225 107.126 148.428 107.052 149.699C106.783 154.186 104.494 156.931 100.129 158.326C100.005 158.364 99.9186 158.513 99.8153 158.612H7.16198V158.616ZM114.855 71.9825C114.945 71.6016 114.987 71.5064 114.987 71.407C114.991 58.0348 114.983 44.6626 115.016 31.2946C115.016 30.1768 114.607 29.9201 113.573 29.9242C106.188 29.9615 98.8028 29.9449 91.4216 29.9408C88.6691 29.9408 88.3757 29.651 88.3757 26.9641C88.3757 19.686 88.3344 12.4038 88.4088 5.12565C88.4212 3.71805 88.0533 3.30819 86.6358 3.31233C75.6384 3.35787 64.6369 3.32475 53.6395 3.32475C42.6917 3.32475 31.7439 3.32889 20.7961 3.34959C17.6717 3.35373 15.3656 5.04285 14.7291 7.82907C14.539 8.66949 14.5721 9.57201 14.5721 10.4455C14.5638 52.8847 14.568 95.3197 14.568 137.759C14.568 138.222 14.5597 138.69 14.5762 139.154C14.6795 141.948 16.5228 144.155 19.2711 144.722C19.9241 144.855 20.6019 144.913 21.2672 144.913C50.2878 144.921 79.3083 144.921 108.329 144.921C108.639 144.921 108.949 144.929 109.259 144.904C112.672 144.627 114.954 142.218 114.987 138.794C115.016 135.954 114.966 133.114 115.012 130.274C115.024 129.479 114.772 128.924 114.206 128.382C112.532 126.771 110.871 125.144 109.275 123.455C108.631 122.772 108.188 122.722 107.354 123.219C92.2647 132.232 73.2951 128.303 63.0168 114.032C62.4589 113.258 61.8886 113.014 60.9793 113.018C55.5075 113.055 50.0316 113.022 44.5597 113.043C43.3281 113.047 42.2991 112.741 42.3156 111.329C42.3321 109.909 43.3901 109.661 44.6093 109.669C49.2587 109.694 53.904 109.677 58.5534 109.677C59.0493 109.677 59.5494 109.677 60.2768 109.677C59.132 107.189 58.1938 104.85 57.6772 102.387C57.4623 101.364 56.9829 101.091 55.9869 101.103C52.1682 101.153 48.3454 101.12 44.5225 101.124C43.3075 101.124 42.2701 100.826 42.3156 99.381C42.3611 98.0231 43.3653 97.8119 44.5184 97.8202C48.1842 97.8451 51.85 97.7954 55.5158 97.8492C56.549 97.8658 56.8341 97.5511 56.7845 96.5285C56.6895 94.5745 56.6027 92.5997 57.0036 90.6622C57.2392 89.5237 56.9292 89.1552 55.7018 89.1842C51.883 89.267 48.0602 89.2339 44.2374 89.2049C42.7082 89.1925 41.9354 88.1616 42.4313 86.9155C42.8405 85.8887 43.729 85.868 44.6258 85.868C48.6553 85.868 52.6807 85.8722 56.7102 85.8598C57.2433 85.8598 57.9335 86.0833 58.1525 85.3216C58.9336 82.6057 60.0743 80.0348 61.5125 77.3521C60.7066 77.3521 60.1487 77.3521 59.5907 77.3521C54.6314 77.3521 49.6761 77.3438 44.7168 77.3562C43.4811 77.3562 42.2949 77.1823 42.3156 75.6423C42.3363 74.0898 43.5348 74.0028 44.7664 74.0069C50.7052 74.0318 56.644 73.9904 62.5829 74.0401C63.5706 74.0483 64.1905 73.742 64.7815 72.9719C66.8851 70.2437 69.5136 68.0909 72.4355 66.2859C72.795 66.0623 73.2951 65.9753 73.5017 65.3958C64.0294 65.3958 54.6396 65.3958 45.254 65.3958C44.7374 65.3958 44.2167 65.4206 43.7084 65.3668C42.7867 65.2716 42.3239 64.6671 42.3032 63.806C42.2867 62.949 42.7 62.3032 43.6298 62.179C44.1878 62.1045 44.7622 62.092 45.3284 62.092C57.3094 62.0879 69.2904 62.092 81.2673 62.0796C82.193 62.0796 83.1312 62.0217 84.0363 61.8561C91.3183 60.5271 98.3068 61.3717 104.994 64.5843C108.705 66.3645 111.904 68.8402 114.855 71.9742V71.9825ZM3.33087 84.891C3.33087 106.108 3.335 127.326 3.31847 148.543C3.31847 150.295 3.51685 151.93 4.74842 153.3C6.13291 154.845 7.87695 155.292 9.89376 155.292C39.0176 155.267 68.1374 155.275 97.2612 155.275C97.6745 155.275 98.0878 155.275 98.5011 155.254C100.981 155.114 103.15 153.321 103.754 150.928C104.295 148.784 103.832 148.175 101.646 148.175C74.8986 148.175 48.1511 148.175 21.4036 148.175C19.8538 148.175 18.3205 148.146 16.8451 147.521C13.0058 145.898 11.0923 142.781 11.0923 138.003C11.0923 97.5801 11.0923 57.1613 11.0923 16.7383C11.0923 16.3243 11.0592 15.9103 11.1005 15.5005C11.1873 14.6311 10.8319 14.3537 9.95575 14.3289C5.95933 14.2047 3.335 16.6969 3.335 20.7707C3.32674 42.1414 3.33087 63.5162 3.33087 84.8869V84.891ZM60.1156 94.6448C60.0495 97.5594 60.4917 100.399 61.3141 103.186C67.0174 122.536 89.8718 130.857 106.705 119.717C108.564 118.487 108.953 118.5 110.548 120.098C112.59 122.143 114.611 124.209 116.603 126.303C117.119 126.846 117.433 127.015 118.024 126.378C119.215 125.09 120.467 123.857 121.744 122.656C122.339 122.097 122.277 121.733 121.723 121.191C119.653 119.174 117.624 117.117 115.582 115.067C114.073 113.552 114.011 113.184 115.231 111.362C118.161 106.978 119.83 102.147 120.211 96.9053C121.558 78.4078 106.205 63.1891 87.7558 64.6837C72.0511 65.9547 60.1197 78.8921 60.1197 94.649L60.1156 94.6448ZM111.966 26.6205C105.238 19.893 98.4308 13.0827 91.7274 6.38007C91.7274 12.5859 91.7398 19.0774 91.715 25.569C91.715 26.3556 91.9216 26.6412 92.7523 26.6371C99.2491 26.6081 105.746 26.6205 111.966 26.6205ZM141.263 137.163C141.135 137.018 140.974 136.823 140.796 136.645C140.11 135.95 139.383 135.291 138.738 134.559C138.205 133.954 137.812 133.979 137.263 134.559C135.486 136.417 133.667 138.235 131.861 140.065C129.266 142.698 129.286 142.677 132.088 145.203C132.679 145.737 133.027 145.753 133.576 145.19C135.953 142.768 138.366 140.379 140.759 137.974C140.966 137.767 141.276 137.614 141.259 137.167L141.263 137.163ZM129.956 125.749C129.555 125.314 129.191 124.9 128.803 124.511C127.37 123.073 125.954 123.054 124.554 124.453C123.207 125.802 121.856 127.152 120.508 128.498C117.785 131.222 117.797 131.205 120.628 133.834C121.145 134.314 121.422 134.405 121.963 133.851C124.41 131.342 126.91 128.878 129.386 126.399C129.563 126.221 129.72 126.022 129.96 125.749H129.956ZM138.564 151.036C139.189 150.994 139.577 150.58 139.978 150.175C141.507 148.639 143.04 147.111 144.569 145.583C147.256 142.897 147.231 142.756 144.412 140.222C143.817 139.688 143.528 139.821 143.053 140.305C140.701 142.694 138.321 145.049 135.957 147.422C135.713 147.666 135.353 147.869 135.37 148.274C135.386 148.738 138.085 151.044 138.564 151.036ZM135.556 131.685C135.316 131.412 135.13 131.176 134.923 130.961C134.275 130.299 133.572 129.686 132.977 128.982C132.415 128.315 132.043 128.324 131.431 128.97C129.733 130.758 127.96 132.476 126.212 134.219C123.48 136.947 123.5 136.927 126.352 139.572C126.976 140.152 127.303 140.056 127.84 139.514C130.179 137.13 132.555 134.782 134.915 132.414C135.126 132.203 135.308 131.967 135.556 131.685Z" fill="#737373"/>
<path d="M70.679 50.2105C79.2463 50.2105 87.8177 50.2105 96.385 50.2105C96.8479 50.2105 97.3232 50.1732 97.7737 50.256C98.6416 50.4216 99.1375 50.993 99.1416 51.8789C99.1416 52.7649 98.6416 53.3362 97.7778 53.506C97.3273 53.597 96.8521 53.5598 96.3892 53.5598C79.3042 53.5598 62.215 53.5598 45.13 53.5598C44.7705 53.5598 44.4068 53.5722 44.0472 53.5515C42.952 53.4853 42.2701 52.9222 42.3114 51.8044C42.3486 50.7777 43.0016 50.2353 44.039 50.2105C44.5556 50.1981 45.0722 50.2064 45.5888 50.2064C53.9494 50.2064 62.3142 50.2064 70.6749 50.2064L70.679 50.2105Z" fill="#737373"/>
<path d="M31.9505 70.0455C32.9299 70.0455 33.9136 70.0041 34.893 70.0537C37.195 70.1697 38.6208 71.6145 38.6911 73.8957C38.7283 75.0797 38.7489 76.272 38.6787 77.4561C38.5464 79.6544 37.1413 81.1407 34.9509 81.2524C32.9465 81.3559 30.9255 81.3559 28.917 81.2483C26.7845 81.1365 25.4868 79.8531 25.3049 77.7293C25.1892 76.4004 25.1851 75.0424 25.3049 73.7135C25.5033 71.4489 27.0242 70.1117 29.322 70.0496C30.1982 70.0248 31.0785 70.0496 31.9546 70.0496C31.9546 70.0496 31.9546 70.0496 31.9546 70.0537L31.9505 70.0455ZM32.0993 78.0191C35.9345 77.9239 35.2857 78.7312 35.3559 74.6367C35.3559 74.587 35.3518 74.5332 35.3559 74.4835C35.4386 73.6969 35.1121 73.3616 34.302 73.3823C32.7605 73.4196 31.2148 73.4154 29.6733 73.3823C28.917 73.3657 28.5409 73.5769 28.5574 74.4214C28.6318 78.8347 28.0367 77.9197 31.9463 78.0191C31.9959 78.0191 32.0497 78.0191 32.0993 78.0191Z" fill="#737373"/>
<path d="M31.934 105.049C30.9008 105.049 29.8676 105.09 28.8385 105.04C27.0407 104.949 25.7017 103.823 25.3918 102.064C25.0983 100.383 25.1025 98.6649 25.3794 96.984C25.6769 95.179 27.0903 93.9453 28.9129 93.8873C30.9752 93.8211 33.0416 93.8086 35.0997 93.8956C37.1041 93.9784 38.5589 95.4771 38.6705 97.4767C38.7366 98.6607 38.7242 99.8489 38.6829 101.033C38.5878 103.554 37.0711 105.02 34.5583 105.065C33.6822 105.082 32.806 105.065 31.9299 105.065C31.9299 105.061 31.9299 105.057 31.9299 105.053L31.934 105.049ZM31.8307 101.803C32.7027 101.803 33.5788 101.815 34.4509 101.799C34.8724 101.791 35.3229 101.728 35.3312 101.17C35.3518 100.039 35.3601 98.9091 35.3229 97.783C35.3064 97.2324 34.8311 97.1993 34.4137 97.1952C32.7688 97.1869 31.1281 97.1993 29.4832 97.1869C28.8468 97.1827 28.6195 97.456 28.5492 98.1018C28.1773 101.728 28.2269 101.807 31.8307 101.799V101.803Z" fill="#737373"/>
<path d="M31.9836 57.3229C31.0041 57.3229 30.0246 57.356 29.0451 57.3146C26.9663 57.2359 25.5281 55.9856 25.3297 53.9032C25.1934 52.4749 25.1892 51.0135 25.3256 49.5852C25.5281 47.4697 27.0366 46.1738 29.1774 46.1324C31.033 46.0952 32.8928 46.0952 34.7484 46.1324C37.195 46.1821 38.6415 47.6684 38.6952 50.1358C38.7159 51.1667 38.7324 52.1975 38.6952 53.2284C38.596 55.8159 37.0628 57.2897 34.4632 57.3229C33.6367 57.3353 32.8143 57.3229 31.9877 57.3229C31.9877 57.3229 31.9877 57.3229 31.9877 57.3187L31.9836 57.3229ZM31.8182 53.9984C35.608 53.9984 35.5832 53.9984 35.3725 50.4712C35.3229 49.6721 35.0336 49.3699 34.269 49.3741C32.7275 49.3906 31.1859 49.3948 29.6485 49.3741C28.8798 49.3616 28.5409 49.6597 28.5533 50.4629C28.6319 54.814 28.0119 53.8867 31.8182 53.9943V53.9984Z" fill="#737373"/>
<path d="M31.843 128.878C31.0702 128.878 30.2974 128.887 29.5245 128.878C26.7886 128.849 25.3297 127.442 25.2554 124.697C25.2223 123.463 25.1975 122.213 25.3504 120.992C25.5984 119.009 27.0242 117.742 29.0079 117.688C31.0165 117.634 33.0333 117.626 35.0418 117.696C37.1496 117.771 38.5836 119.245 38.687 121.356C38.7407 122.437 38.7242 123.521 38.6952 124.602C38.6291 127.367 37.1 128.849 34.3186 128.874C33.492 128.883 32.6696 128.874 31.843 128.874V128.878ZM31.9298 125.537C34.3572 125.537 35.4978 124.377 35.3518 122.056C35.3518 122.006 35.3477 121.952 35.3518 121.902C35.4014 121.265 35.1038 120.93 34.4674 120.925C32.7729 120.917 31.0743 120.921 29.3799 120.925C28.8137 120.925 28.6236 121.248 28.5533 121.803C28.0987 125.306 28.2847 125.533 31.7769 125.533H31.9298V125.537Z" fill="#737373"/>
<path d="M53.4741 124.888C50.4324 124.888 47.3906 124.867 44.353 124.896C43.2124 124.908 42.361 124.544 42.3238 123.314C42.2866 121.973 43.1917 121.617 44.3861 121.621C50.5192 121.638 56.6522 121.634 62.7853 121.621C63.9425 121.621 64.8889 121.87 64.8724 123.273C64.8559 124.676 63.9053 124.896 62.7481 124.888C59.6568 124.867 56.5613 124.879 53.47 124.879L53.4741 124.888Z" fill="#737373"/>
<path d="M67.5339 94.6159C67.5504 82.1794 77.8039 71.9039 90.1734 71.9288C102.7 71.9536 112.858 82.167 112.85 94.7277C112.842 107.28 102.613 117.46 90.0742 117.402C77.6882 117.345 67.5132 107.061 67.5298 94.6159H67.5339ZM70.836 94.6698C70.8278 105.392 79.5025 114.057 90.2313 114.049C100.894 114.041 109.569 105.421 109.618 94.794C109.668 84.237 100.795 75.3029 90.2437 75.2822C79.5397 75.2615 70.8484 83.943 70.836 94.6698Z" fill="#737373"/>
<path d="M87.3218 102.615C86.6895 102.64 86.2514 102.3 85.8754 101.853C84.2801 99.9571 82.689 98.0609 81.0896 96.169C80.3663 95.3161 80.3291 94.4716 81.2136 93.7388C82.069 93.0308 82.9411 93.1426 83.6767 93.9665C84.7058 95.1215 85.7596 96.2642 86.7143 97.4813C87.3177 98.2555 87.7021 98.4211 88.4542 97.6014C91.5952 94.1776 94.827 90.8408 97.9638 87.417C98.7284 86.5807 99.4516 86.2744 100.336 87.0072C101.208 87.7275 101.183 88.6176 100.419 89.4373C96.5132 93.6311 92.5994 97.8125 88.6898 101.998C88.322 102.391 87.888 102.644 87.3301 102.619L87.3218 102.615Z" fill="#737373"/>
</svg>
