<svg width="547" height="561" viewBox="0 0 547 561" fill="none" xmlns="http://www.w3.org/2000/svg">
<g opacity="0.5">
<path d="M313.467 461.641C319.593 460 325.52 458.106 331.299 455.902L364.935 489.298L415.543 456.402L398.593 412.176C407.389 403.264 415.284 393.523 422.112 383.064L468.985 390.387L490.627 334.094L450.839 308.289C452.731 296.071 453.407 283.567 452.805 270.947L495.055 249.335L479.414 191.125L432.029 193.574C426.241 182.344 419.388 171.879 411.646 162.264L433.108 120.003L386.149 82.1365L349.222 111.935C338.07 106.337 326.394 101.884 314.32 98.5644L306.799 51.7906L246.525 48.6919L234.206 94.4456C228.09 95.4725 221.949 96.8121 215.884 98.4372C209.819 100.062 203.842 102.014 198.012 104.188L164.416 70.7803L113.809 103.677L130.759 147.903C121.927 156.845 114.072 166.575 107.249 176.969L60.3255 169.703L38.7039 225.99L78.451 251.806C76.5596 264.024 75.8829 276.528 76.5054 289.143L34.3017 310.764L49.902 368.985L97.3164 366.484C103.105 377.714 109.912 388.17 117.69 397.84L96.2485 440.096L143.156 477.933L180.088 448.154C191.229 453.712 202.917 458.205 215.031 461.514L222.547 508.268L282.821 511.366L295.181 465.602C301.235 464.591 307.356 463.257 313.482 461.615L313.467 461.641ZM119.713 318.969C98.234 239.054 145.734 156.825 225.78 135.289C305.853 113.768 388.184 161.122 409.668 241.057C431.132 320.998 383.632 403.228 303.58 424.743C223.508 446.264 141.177 398.91 119.713 318.969Z" fill="#D9DADA" fill-opacity="0.7"/>
</g>
</svg>
