<svg width="432" height="364" viewBox="0 0 432 364" fill="none" xmlns="http://www.w3.org/2000/svg">
<path d="M244.942 188.824V152.727H219.977C217.593 139.251 212.424 126.707 205.078 115.697L220.724 98.8652L193.873 74.4324L179.711 89.6667C168.323 81.6261 155.157 75.9011 140.908 73.1995V50.5249H104.424V72.9958C89.8609 75.6009 76.3812 81.358 64.7544 89.5273L50.072 73.7355L23.2209 98.1683L39.3229 115.493C31.9004 126.546 26.6775 139.176 24.2828 152.737H0.0540771V188.834H24.7054C27.4577 202.589 33.1248 215.326 41.0349 226.379L24.1745 244.508L51.0255 268.941L67.2033 251.541C78.1366 258.756 90.5977 263.88 103.991 266.335V292.859H140.475V266.303C154.03 263.795 166.621 258.552 177.652 251.176L194.838 269.659L221.689 245.226L203.658 225.832C211.362 214.908 216.889 202.364 219.597 188.834H244.964L244.942 188.824ZM122.141 242.246C81.7124 242.246 48.815 209.697 48.815 169.698C48.815 129.698 81.7124 97.1498 122.141 97.1498C162.569 97.1498 195.466 129.688 195.466 169.698C195.466 209.708 162.58 242.246 122.141 242.246Z" fill="#3598DA"/>
<path d="M117.221 182.574C119.822 183.56 123.17 185.147 126.616 187.752C132.11 191.911 135.252 196.693 136.91 199.727C139.326 195.171 142.295 190.271 145.936 185.254C154.854 172.979 164.714 164.252 172.841 158.27" stroke="#3598DA" stroke-width="10" stroke-linecap="round" stroke-linejoin="round"/>
<path d="M157.855 158.27V146.831H94.1084V216.345H158.224V195.975" stroke="#3598DA" stroke-width="3" stroke-miterlimit="10"/>
<path d="M152.535 144.686V139.551C152.535 136.667 150.238 134.319 147.399 134.319H88.0404C85.2015 134.319 82.9043 136.656 82.9043 139.551V207.178C82.9043 210.062 85.2015 212.41 88.0404 212.41C89.5141 212.421 90.9986 212.431 92.4723 212.442" stroke="#3598DA" stroke-width="5" stroke-miterlimit="10" stroke-linecap="square"/>
<path d="M112.746 134.33H123.04C129.271 134.33 134.331 139.336 134.331 145.501V146.841H101.466V145.501C101.466 139.336 106.526 134.33 112.757 134.33H112.746Z" fill="#3598DA"/>
<path d="M117.893 120.929C123.723 120.929 128.458 125.614 128.458 131.382H107.328C107.328 125.614 112.063 120.929 117.893 120.929Z" stroke="#3598DA" stroke-width="5" stroke-miterlimit="10"/>
<path d="M416.602 323.553L429.735 297.694L411.856 288.796C415.053 278.289 415.92 267.461 414.663 256.966L432 250.49L421.663 223.42L405.973 229.284C400.739 219.464 393.392 210.673 384.171 203.661L392.428 187.419L366.292 174.426L358.111 190.518C346.733 187.194 334.987 186.519 323.686 188.223L318.918 171.681L290.799 179.625L296.033 197.765C286.692 203.04 278.36 210.223 271.707 219.089L254.337 210.448L241.204 236.306L258.855 245.087C255.821 255.926 255.236 267.065 256.883 277.796L238.213 284.775L248.551 311.846L266.473 305.145C271.685 314.204 278.739 322.32 287.44 328.849L277.785 347.846L303.921 360.84L313.587 341.821C324.206 344.855 335.139 345.584 345.715 344.233L351.295 363.595L379.425 355.651L373.563 335.335C383.055 330.253 391.583 323.242 398.442 314.515L416.613 323.553H416.602ZM309.198 318.074C280.234 303.676 268.521 268.641 283.073 239.994C297.626 211.338 333.037 199.748 361.99 214.146C390.954 228.545 402.668 263.58 388.115 292.226C373.563 320.883 338.151 332.472 309.198 318.074Z" fill="#3598DA"/>
<path d="M319.731 310.023C316.502 308.683 301.83 302.186 294.592 285.612C285.945 265.821 294.971 247.853 296.239 245.43C308.472 253.374 320.706 261.329 332.95 269.273L319.742 310.013L319.731 310.023Z" fill="#3598DA"/>
<path d="M378.135 253.75C381.895 272.983 376.553 291.894 363.767 301.929C353.094 310.302 338.205 311.717 337.035 311.814C331.509 312.285 326.85 311.792 323.545 311.224C327.803 297.287 332.051 283.35 336.309 269.413C350.255 264.192 364.19 258.971 378.135 253.75Z" fill="#3598DA"/>
<path d="M297.896 242.836C299.392 240.906 308.602 229.317 321.833 225.286C328.421 223.281 335.269 223.27 335.269 223.27C338.52 223.27 341.283 223.613 343.374 223.988C340.806 238.183 338.227 252.366 335.659 266.561C323.068 258.649 310.488 250.737 297.896 242.836Z" fill="#3598DA"/>
<path d="M385.59 112.942L392.558 90.5032L377.03 85.786C378.157 76.9521 377.355 68.1824 374.917 59.9488L387.898 52.4442L375.925 32.1711L364.179 38.9681C358.653 31.8173 351.566 25.7708 343.233 21.3967L347.611 7.29877L324.932 0.405273L320.598 14.3745C311.04 13.2381 301.548 14.2673 292.739 17.1512L286.66 4.55424L265.248 14.6747L271.923 28.4831C265.173 33.9508 259.484 40.8121 255.377 48.7991L240.305 44.2213L233.337 66.6601L248.659 71.3236C247.716 80.4042 248.778 89.3882 251.563 97.7612L237.585 105.845L249.558 126.118L262.973 118.356C268.38 124.906 275.142 130.449 282.987 134.512L277.861 151.001L300.541 157.894L305.666 141.384C314.584 142.381 323.426 141.502 331.704 139.004L338.823 153.745L360.235 143.625L352.769 128.155C359.671 122.816 365.523 116.062 369.824 108.16L385.601 112.953L385.59 112.942ZM298.915 122.944C273.776 115.301 259.603 88.8522 267.329 63.9798C275.055 39.1075 301.787 25.0846 326.926 32.7286C352.065 40.3726 366.238 66.8209 358.512 91.6932C350.786 116.566 324.054 130.588 298.915 122.944Z" fill="#3598DA"/>
<path d="M334.435 48.124H291.449C285.417 48.124 280.527 52.9623 280.527 58.9307V99.3161C280.527 105.284 285.417 110.123 291.449 110.123H334.435C340.467 110.123 345.357 105.284 345.357 99.3161V58.9307C345.357 52.9623 340.467 48.124 334.435 48.124Z" stroke="#3598DA" stroke-miterlimit="10"/>
<path d="M341.565 67.9575H284.493V96.9038H341.565V67.9575Z" stroke="#3598DA" stroke-miterlimit="10"/>
<path d="M327.652 67.9575H284.493V104.762H327.652V67.9575Z" stroke="#3598DA" stroke-miterlimit="10"/>
<path d="M284.493 77.0703H341.565" stroke="#3598DA" stroke-miterlimit="10"/>
<path d="M284.493 86.3652H341.565" stroke="#3598DA" stroke-miterlimit="10"/>
<path d="M298.222 67.9575L298.406 104.762" stroke="#3598DA" stroke-miterlimit="10"/>
<path d="M312.85 67.9575L313.034 104.762" stroke="#3598DA" stroke-miterlimit="10"/>
<path d="M286.79 52.2407H339.083C342.54 52.2407 345.357 55.0174 345.357 58.4481V64.2159H280.527V58.4481C280.527 55.0281 283.333 52.2407 286.801 52.2407H286.79Z" fill="#3598DA"/>
</svg>
