<svg width="64" height="64" viewBox="0 0 64 64" fill="none" xmlns="http://www.w3.org/2000/svg">
<g clip-path="url(#clip0_0_83)">
<path d="M24.2307 41.8867C23.2421 41.901 22.3954 41.5479 21.7006 40.8538C17.1369 36.2998 12.5731 31.7477 8.02354 27.1794C6.72916 25.8791 6.51444 24.1154 7.39762 22.6375C8.24636 21.2168 9.91954 20.5799 11.6211 21.0841C12.0039 21.1984 12.2105 21.1147 12.4678 20.8514C13.9708 19.3041 15.4799 17.7609 17.0113 16.2422C17.3556 15.9013 17.3273 15.7115 16.9951 15.3971C16.2578 14.699 15.5447 13.9744 14.852 13.2354C13.3753 11.6637 13.4057 9.41621 14.9026 7.97711C16.357 6.57884 18.5872 6.6462 20.0862 8.14654C20.8033 8.86507 21.5143 9.59176 22.205 10.3327C22.4724 10.6185 22.6507 10.6206 22.9282 10.3389C24.4555 8.77933 25.995 7.23205 27.5446 5.69497C27.8059 5.43573 27.7978 5.22548 27.6925 4.89071C27.1354 3.14542 27.7735 1.42259 29.2664 0.522388C30.7269 -0.3574 32.4872 -0.118571 33.7795 1.1756C38.3007 5.69905 42.8118 10.2327 47.329 14.7603C48.4188 15.8523 48.9009 17.1322 48.4269 18.6468C47.9975 20.0206 47.0333 20.8514 45.6315 21.1637C44.9955 21.3046 44.3635 21.2556 43.7679 21.0147C43.4256 20.8759 43.217 20.9433 42.9698 21.1943C41.4567 22.7335 39.9496 24.2767 38.4 25.777C37.9503 26.2118 38.242 26.3976 38.5134 26.6731C43.3122 31.4946 48.1068 36.3181 52.9036 41.1417C56.1972 44.4526 59.495 47.7574 62.7785 51.0806C64.2836 52.6034 64.4031 54.7529 63.1067 56.2348C61.7029 57.8393 59.3552 57.9352 57.7732 56.3961C56.1 54.7692 54.4714 53.0933 52.8266 51.4358C46.3506 44.918 39.8706 38.4043 33.4068 31.8743C32.9936 31.4579 32.7687 31.4191 32.3454 31.8641C30.9274 33.3522 29.4669 34.7994 28.0085 36.2467C27.7087 36.5447 27.6175 36.7876 27.7391 37.2387C28.3913 39.6515 26.6776 41.8928 24.2327 41.8867H24.2307ZM26.0173 34.7647C26.2057 34.5892 26.3738 34.4422 26.5358 34.285C29.6918 31.2109 32.6857 27.9734 35.9307 24.987C37.7396 23.3234 39.4088 21.5087 41.1549 19.7736C41.4465 19.4838 41.5863 19.3021 41.2136 18.9306C37.4257 15.1501 33.6539 11.3513 29.8903 7.5464C29.5804 7.23205 29.4041 7.25859 29.1064 7.55661C24.2023 12.4802 19.2901 17.3976 14.3678 22.3028C14.0275 22.6416 14.0599 22.8212 14.378 23.1397C18.1254 26.8875 21.8607 30.6516 25.6 34.4075C25.7215 34.53 25.8613 34.632 26.0173 34.7627V34.7647ZM61.5287 53.7812C61.551 53.2689 61.1722 52.9484 60.8319 52.6075C53.0433 44.7588 45.2547 36.9101 37.4662 29.0635C36.3075 27.8958 36.3338 27.9244 35.1367 29.0532C34.6465 29.5166 34.6688 29.7514 35.1387 30.2229C43.1319 38.2247 51.1028 46.2489 59.0817 54.267C59.2782 54.465 59.4727 54.6712 59.6996 54.8243C60.0844 55.0876 60.5118 55.0938 60.923 54.8815C61.3444 54.6651 61.5388 54.2956 61.5267 53.7812H61.5287ZM46.1217 17.5446C46.0873 16.9771 45.7389 16.6423 45.3945 16.2973C41.0353 11.9392 36.6762 7.57907 32.317 3.22095C32.157 3.05969 32.001 2.8821 31.8106 2.76575C31.3022 2.45547 30.7816 2.47589 30.344 2.88822C29.9045 3.3026 29.8457 3.82312 30.1435 4.34773C30.2671 4.56207 30.4615 4.73966 30.6398 4.91929C34.9827 9.29373 39.3277 13.6682 43.6747 18.0385C43.8712 18.2345 44.0657 18.4427 44.2966 18.5917C44.6916 18.8469 45.1129 18.8326 45.5161 18.5876C45.9171 18.3427 46.0913 17.963 46.1217 17.5446ZM10.5677 23.2315C10.1079 23.2744 9.70482 23.4683 9.50428 23.9358C9.26931 24.4828 9.39084 24.9727 9.81218 25.3953C11.1187 26.7058 12.4212 28.0224 13.7237 29.3349C16.9019 32.5377 20.0801 35.7425 23.2624 38.9412C23.8741 39.5556 24.6135 39.6087 25.1402 39.1086C25.677 38.6003 25.6223 37.9042 24.9639 37.2408C20.5217 32.7561 16.0734 28.2776 11.6292 23.7929C11.3355 23.4969 11.0276 23.2499 10.5637 23.2336L10.5677 23.2315ZM17.3901 9.37743C16.8979 9.41621 16.5089 9.63667 16.3165 10.1C16.116 10.5818 16.1767 11.0554 16.5474 11.4412C17.2848 12.2066 17.9512 13.0803 18.802 13.6845C19.6791 14.3071 19.7763 13.0252 20.3374 12.7659C20.625 12.6333 20.9187 12.3618 20.4772 11.9576C19.7317 11.2758 19.0369 10.5348 18.3259 9.81426C18.0646 9.54889 17.7506 9.41213 17.3881 9.37743H17.3901Z" fill="#737373"/>
<path d="M23.6898 63.9981C17.0356 63.9981 10.3794 64.0083 3.72515 63.994C1.18095 63.9879 -0.583382 61.6179 0.178258 59.2399C0.617821 57.8702 1.57797 56.9843 2.98782 56.7556C3.61981 56.6536 3.66438 56.3923 3.66235 55.882C3.66235 54.994 3.56715 54.104 3.76364 53.2202C4.27004 50.938 6.15794 49.3458 8.4854 49.3438C18.6318 49.3315 28.7782 49.3274 38.9246 49.3438C41.5863 49.3479 43.6808 51.4728 43.7396 54.1408C43.7538 54.8021 43.7538 55.4635 43.7396 56.1249C43.7315 56.4678 43.7801 56.6311 44.2014 56.7066C46.2676 57.072 47.5599 58.7275 47.3776 60.6851C47.1973 62.6223 45.5991 63.996 43.5026 63.996C36.899 64.0001 30.2934 63.996 23.6898 63.996V63.9981ZM23.6959 56.6658C28.9099 56.6658 34.1239 56.6658 39.3358 56.6638C39.9638 56.6638 40.8004 56.872 41.167 56.5515C41.5985 56.1759 41.3007 55.3104 41.3068 54.6592C41.323 52.7017 40.3871 51.777 38.4263 51.777C30.7066 51.777 22.989 51.777 15.2693 51.777C13.0431 51.777 10.8149 51.7668 8.5887 51.7811C7.11809 51.7913 6.11337 52.8037 6.08299 54.2735C6.07286 54.8083 6.1235 55.3472 6.06881 55.8759C6.00602 56.4984 6.19035 56.6842 6.84058 56.6801C12.4597 56.6515 18.0768 56.6638 23.6959 56.6638V56.6658ZM23.7081 61.5547C30.182 61.5547 36.658 61.5547 43.1319 61.5547C43.3588 61.5547 43.5897 61.569 43.8145 61.5445C44.485 61.4751 44.9489 60.977 44.9529 60.3401C44.957 59.7032 44.4951 59.195 43.8307 59.1215C43.6302 59.099 43.4256 59.1113 43.2251 59.1113C30.2002 59.1113 17.1734 59.1113 4.14851 59.1113C3.92163 59.1113 3.68666 59.0888 3.46789 59.1337C2.8521 59.2582 2.47128 59.6481 2.45102 60.285C2.42874 60.9627 2.80753 61.3812 3.45371 61.5261C3.69476 61.5812 3.9581 61.5526 4.20928 61.5526C10.7095 61.5526 17.2098 61.5526 23.7101 61.5526L23.7081 61.5547Z" fill="#737373"/>
</g>
<defs>
<clipPath id="clip0_0_83">
<rect width="64" height="64" fill="white"/>
</clipPath>
</defs>
</svg>
