<svg width="60" height="61" viewBox="0 0 60 61" fill="none" xmlns="http://www.w3.org/2000/svg">
<path d="M30 60.3615C46.5685 60.3615 60 46.8491 60 30.1808C60 13.5124 46.5685 0 30 0C13.4315 0 0 13.5124 0 30.1808C0 46.8491 13.4315 60.3615 30 60.3615Z" fill="#2D95E4"/>
<path d="M45.3917 19.3628C43.7149 20.8237 42.1639 22.1756 40.6115 23.5275C37.2285 26.4721 33.8389 29.41 30.4679 32.3708C30.1056 32.6883 29.9037 32.6977 29.5346 32.3748C24.7544 28.1899 19.9567 24.0239 15.1657 19.8524C15.0146 19.7206 14.8716 19.5807 14.6376 19.3641H45.3917V19.3628Z" fill="#FDFEFE"/>
<path d="M45.246 40.9974H14.7366C14.7179 40.8158 14.8569 40.7727 14.9398 40.7001C18.4351 37.6707 21.9357 34.6481 25.423 31.6093C25.7345 31.3375 25.9244 31.3254 26.2413 31.5972C27.3418 32.5388 28.4864 33.428 29.5788 34.379C29.9264 34.6817 30.1177 34.6333 30.4346 34.3575C31.5417 33.397 32.6823 32.4742 33.7961 31.5218C34.0275 31.3241 34.1719 31.3147 34.4085 31.5191C37.9733 34.601 41.5475 37.6734 45.1203 40.7458C45.1832 40.7996 45.2621 40.836 45.3329 40.8817C45.3049 40.9194 45.2755 40.9584 45.2474 40.996L45.246 40.9974Z" fill="#FDFEFE"/>
<path d="M13.5532 20.3745C15.0548 21.6753 16.4642 22.8967 17.8735 24.1182C20.0744 26.0257 22.2727 27.9358 24.479 29.8379C24.7223 30.0478 24.8654 30.1742 24.5298 30.4635C20.9623 33.5372 17.4095 36.6271 13.8501 39.7103C13.7765 39.7749 13.7123 39.8731 13.5546 39.8448V20.3745H13.5532Z" fill="#FCFDFE"/>
<path d="M46.4467 20.4038V39.8378C46.2488 39.8728 46.174 39.7302 46.0777 39.6468C42.5543 36.5959 39.0363 33.541 35.5089 30.4941C35.2495 30.2695 35.16 30.1417 35.4769 29.8686C39.047 26.7921 42.6038 23.7009 46.1659 20.615C46.2301 20.5585 46.3023 20.5114 46.4467 20.4038Z" fill="#FCFDFE"/>
</svg>
