<svg width="408" height="473" viewBox="0 0 408 473" fill="none" xmlns="http://www.w3.org/2000/svg">
<line y1="-3" x2="111.448" y2="-3" transform="matrix(0.864591 -0.502476 0.135278 0.990808 110 385)" stroke="#003B64" stroke-width="6"/>
<path d="M202 327L202 330L208 330L208 327L202 327ZM202 117L202 327L208 327L208 117L202 117Z" fill="#003B64"/>
<mask id="mask0_2_1474" style="mask-type:luminance" maskUnits="userSpaceOnUse" x="149" y="4" width="113" height="113">
<path d="M205.413 116.271C236.263 116.271 261.271 91.2629 261.271 60.4133C261.271 29.5636 236.263 4.55505 205.413 4.55505C174.564 4.55505 149.555 29.5636 149.555 60.4133C149.555 91.2629 174.564 116.271 205.413 116.271Z" fill="white"/>
</mask>
<g mask="url(#mask0_2_1474)">
<path d="M215.838 76.5513V64.4478C217.413 63.3806 219.742 61.5065 221.59 58.5392C224.519 53.8279 224.44 49.2338 224.336 46.0583C224.193 41.5813 223.946 34.0459 217.777 28.5408C216.228 27.1613 211.413 23.335 204.307 23.4782C197.019 23.6213 192.36 27.825 191.175 28.9703C185.748 34.2151 185.54 40.9046 185.41 45.0692C185.319 48.0495 185.228 53.5677 188.846 59.0468C190.759 61.936 193.036 63.8101 194.585 64.9033V76.6554C190.798 78.074 185.501 80.1172 179.202 82.6811C168.608 87.0019 166.812 88.0821 165.198 89.5918C163.064 91.583 158.34 98.3636 159.108 110.923V113.604H251.758V111.131C252.07 99.8993 247.723 93.1187 245.667 91.0104C244.509 89.813 242.466 88.03 229.933 82.4598C224.089 79.8569 219.196 77.8657 215.812 76.5382L215.838 76.5513Z" fill="#2D95E4"/>
</g>
<path d="M205.413 116.271C236.263 116.271 261.271 91.2629 261.271 60.4133C261.271 29.5636 236.263 4.55505 205.413 4.55505C174.564 4.55505 149.555 29.5636 149.555 60.4133C149.555 91.2629 174.564 116.271 205.413 116.271Z" stroke="#003862" stroke-width="7" stroke-miterlimit="10"/>
<mask id="mask1_2_1474" style="mask-type:luminance" maskUnits="userSpaceOnUse" x="274" y="157" width="113" height="113">
<path d="M330.413 269.271C361.263 269.271 386.271 244.263 386.271 213.413C386.271 182.564 361.263 157.555 330.413 157.555C299.564 157.555 274.555 182.564 274.555 213.413C274.555 244.263 299.564 269.271 330.413 269.271Z" fill="white"/>
</mask>
<g mask="url(#mask1_2_1474)">
<path d="M340.838 229.551V217.448C342.413 216.381 344.742 214.506 346.59 211.539C349.519 206.828 349.44 202.234 349.336 199.058C349.193 194.581 348.946 187.046 342.777 181.541C341.228 180.161 336.413 176.335 329.307 176.478C322.019 176.621 317.36 180.825 316.175 181.97C310.748 187.215 310.54 193.905 310.41 198.069C310.319 201.05 310.228 206.568 313.846 212.047C315.759 214.936 318.036 216.81 319.585 217.903V229.655C315.798 231.074 310.501 233.117 304.202 235.681C293.608 240.002 291.812 241.082 290.198 242.592C288.064 244.583 283.34 251.364 284.108 263.923V266.604H376.758V264.131C377.07 252.899 372.723 246.119 370.667 244.01C369.509 242.813 367.466 241.03 354.933 235.46C349.089 232.857 344.196 230.866 340.812 229.538L340.838 229.551Z" fill="#2D95E4"/>
</g>
<path d="M330.413 269.271C361.263 269.271 386.271 244.263 386.271 213.413C386.271 182.564 361.263 157.555 330.413 157.555C299.564 157.555 274.555 182.564 274.555 213.413C274.555 244.263 299.564 269.271 330.413 269.271Z" stroke="#003862" stroke-width="7" stroke-miterlimit="10"/>
<mask id="mask2_2_1474" style="mask-type:luminance" maskUnits="userSpaceOnUse" x="291" y="356" width="113" height="113">
<path d="M347.413 468.271C378.263 468.271 403.271 443.263 403.271 412.413C403.271 381.564 378.263 356.555 347.413 356.555C316.564 356.555 291.555 381.564 291.555 412.413C291.555 443.263 316.564 468.271 347.413 468.271Z" fill="white"/>
</mask>
<g mask="url(#mask2_2_1474)">
<path d="M357.838 428.551V416.448C359.413 415.381 361.742 413.506 363.59 410.539C366.519 405.828 366.44 401.234 366.336 398.058C366.193 393.581 365.946 386.046 359.777 380.541C358.228 379.161 353.413 375.335 346.307 375.478C339.019 375.621 334.36 379.825 333.175 380.97C327.748 386.215 327.54 392.905 327.41 397.069C327.319 400.05 327.228 405.568 330.846 411.047C332.759 413.936 335.036 415.81 336.585 416.903V428.655C332.798 430.074 327.501 432.117 321.202 434.681C310.608 439.002 308.812 440.082 307.198 441.592C305.064 443.583 300.34 450.364 301.108 462.923V465.604H393.758V463.131C394.07 451.899 389.723 445.119 387.667 443.01C386.509 441.813 384.466 440.03 371.933 434.46C366.089 431.857 361.196 429.866 357.812 428.538L357.838 428.551Z" fill="#2D95E4"/>
</g>
<path d="M347.413 468.271C378.263 468.271 403.271 443.263 403.271 412.413C403.271 381.564 378.263 356.555 347.413 356.555C316.564 356.555 291.555 381.564 291.555 412.413C291.555 443.263 316.564 468.271 347.413 468.271Z" stroke="#003862" stroke-width="7" stroke-miterlimit="10"/>
<mask id="mask3_2_1474" style="mask-type:luminance" maskUnits="userSpaceOnUse" x="22" y="157" width="113" height="113">
<path d="M78.4133 269.271C109.263 269.271 134.271 244.263 134.271 213.413C134.271 182.564 109.263 157.555 78.4133 157.555C47.5636 157.555 22.5551 182.564 22.5551 213.413C22.5551 244.263 47.5636 269.271 78.4133 269.271Z" fill="white"/>
</mask>
<g mask="url(#mask3_2_1474)">
<path d="M88.8379 229.551V217.448C90.4126 216.381 92.7422 214.506 94.5903 211.539C97.5185 206.828 97.4404 202.234 97.3363 199.058C97.1932 194.581 96.9459 187.046 90.777 181.541C89.2283 180.161 84.4129 176.335 77.307 176.478C70.0189 176.621 65.3597 180.825 64.1754 181.97C58.7484 187.215 58.5401 193.905 58.41 198.069C58.3189 201.05 58.2278 206.568 61.8458 212.047C63.7589 214.936 66.0365 216.81 67.5852 217.903V229.655C63.798 231.074 58.5011 233.117 52.2021 235.681C41.6083 240.002 39.8123 241.082 38.1985 242.592C36.0641 244.583 31.3398 251.364 32.1077 263.923V266.604H124.758V264.131C125.07 252.899 120.723 246.119 118.667 244.01C117.509 242.813 115.466 241.03 102.933 235.46C97.0891 232.857 92.1956 230.866 88.8118 229.538L88.8379 229.551Z" fill="#2D95E4"/>
</g>
<path d="M78.4133 269.271C109.263 269.271 134.271 244.263 134.271 213.413C134.271 182.564 109.263 157.555 78.4133 157.555C47.5636 157.555 22.5551 182.564 22.5551 213.413C22.5551 244.263 47.5636 269.271 78.4133 269.271Z" stroke="#003862" stroke-width="7" stroke-miterlimit="10"/>
<mask id="mask4_2_1474" style="mask-type:luminance" maskUnits="userSpaceOnUse" x="4" y="356" width="113" height="113">
<path d="M60.4133 468.271C91.2629 468.271 116.271 443.263 116.271 412.413C116.271 381.564 91.2629 356.555 60.4133 356.555C29.5636 356.555 4.55505 381.564 4.55505 412.413C4.55505 443.263 29.5636 468.271 60.4133 468.271Z" fill="white"/>
</mask>
<g mask="url(#mask4_2_1474)">
<path d="M70.8379 428.551V416.448C72.4126 415.381 74.7422 413.506 76.5903 410.539C79.5185 405.828 79.4404 401.234 79.3363 398.058C79.1932 393.581 78.9459 386.046 72.777 380.541C71.2283 379.161 66.4129 375.335 59.307 375.478C52.0189 375.621 47.3597 379.825 46.1754 380.97C40.7484 386.215 40.5401 392.905 40.41 397.069C40.3189 400.05 40.2278 405.568 43.8458 411.047C45.7589 413.936 48.0365 415.81 49.5852 416.903V428.655C45.798 430.074 40.5011 432.117 34.2021 434.681C23.6083 439.002 21.8123 440.082 20.1985 441.592C18.0641 443.583 13.3398 450.364 14.1077 462.923V465.604H106.758V463.131C107.07 451.899 102.723 445.119 100.667 443.01C99.5088 441.813 97.4655 440.03 84.9326 434.46C79.0891 431.857 74.1956 429.866 70.8118 428.538L70.8379 428.551Z" fill="#2D95E4"/>
</g>
<path d="M60.4133 468.271C91.2629 468.271 116.271 443.263 116.271 412.413C116.271 381.564 91.2629 356.555 60.4133 356.555C29.5636 356.555 4.55505 381.564 4.55505 412.413C4.55505 443.263 29.5636 468.271 60.4133 468.271Z" stroke="#003862" stroke-width="7" stroke-miterlimit="10"/>
<line y1="-3" x2="83.6695" y2="-3" transform="matrix(0.864591 -0.502476 0.135278 0.990808 133.679 234)" stroke="#003B64" stroke-width="6"/>
<line y1="-3" x2="111.448" y2="-3" transform="matrix(-0.864591 -0.502476 -0.135278 0.990808 300 385)" stroke="#003B64" stroke-width="6"/>
<line y1="-3" x2="83.6695" y2="-3" transform="matrix(-0.864591 -0.502476 -0.135278 0.990808 276.321 234)" stroke="#003B64" stroke-width="6"/>
</svg>
