<svg width="60" height="61" viewBox="0 0 60 61" fill="none" xmlns="http://www.w3.org/2000/svg">
<path d="M30 60.3615C46.5685 60.3615 60 46.8491 60 30.1808C60 13.5124 46.5685 0 30 0C13.4315 0 0 13.5124 0 30.1808C0 46.8491 13.4315 60.3615 30 60.3615Z" fill="#2D95E4"/>
<path d="M16.8105 32.5778C15.9079 32.2751 15.0013 31.9779 14.1028 31.6644C13.7524 31.542 13.3981 31.4183 13.1708 31.0766C12.7322 30.4174 12.8031 29.9157 13.465 29.4798C13.7591 29.2861 14.0961 29.153 14.4264 29.0225C21.917 26.0617 29.409 23.105 36.901 20.1455C37.0654 20.081 37.2205 19.9962 37.381 19.9209C38.6473 19.4326 39.9122 18.9456 41.1785 18.4573C41.5943 18.2972 42.0061 18.1345 42.4568 18.0887C43.3914 17.9932 43.7979 18.4223 43.6161 19.3599C43.2631 21.1827 42.898 23.0041 42.5383 24.8255C41.3443 30.8829 40.1475 36.9403 38.9561 42.999C38.6486 44.5621 37.4946 45.2697 36.2805 44.5985C35.7844 44.324 35.3191 43.9837 34.8672 43.6366C33.1917 42.352 31.4936 41.0929 29.8676 39.7477C28.3727 38.5101 26.8189 37.3532 25.2933 36.1574C24.8052 35.774 25.2839 35.6327 25.4631 35.47C28.6655 32.5536 31.8787 29.648 35.0891 26.741C36.1816 25.7523 37.2754 24.7636 38.3665 23.7749C38.5149 23.6403 38.666 23.5058 38.8037 23.3592C38.9842 23.1655 39.2637 22.9328 39.0805 22.6758C38.8759 22.3893 38.5376 22.5615 38.2983 22.7095C36.9919 23.522 35.6949 24.3479 34.3992 25.1752C30.0214 27.9705 25.6423 30.7645 21.2725 33.5746C20.8954 33.8167 20.5799 33.8557 20.164 33.7051C19.0542 33.3056 17.9297 32.9504 16.8105 32.5778Z" fill="#FDFEFE"/>
</svg>
