<svg width="157" height="456" viewBox="0 0 157 456" fill="none" xmlns="http://www.w3.org/2000/svg">
<path d="M26.25 227.98L130.248 128.228C130.658 127.835 130.658 127.179 130.248 126.785L26.25 27.0337" stroke="#E6E6E6" stroke-width="5" stroke-linecap="round"/>
<path d="M26.25 429L130.248 329.248C130.658 328.855 130.658 328.199 130.248 327.805L26.25 228.054" stroke="#E6E6E6" stroke-width="5" stroke-linecap="round"/>
<circle cx="27.5" cy="27.5" r="25.5" fill="white" stroke="#2D96E3" stroke-width="4"/>
<path d="M27.66 39C27.4267 39 27.2283 38.93 27.065 38.79C26.925 38.6267 26.855 38.4283 26.855 38.195V18.595L21.045 23.075C20.8583 23.215 20.66 23.2733 20.45 23.25C20.24 23.2267 20.065 23.1217 19.925 22.935L19.015 21.78C18.875 21.57 18.8167 21.36 18.84 21.15C18.8867 20.94 19.0033 20.765 19.19 20.625L26.82 14.745C26.9833 14.6283 27.135 14.5583 27.275 14.535C27.415 14.5117 27.5667 14.5 27.73 14.5H29.515C29.7483 14.5 29.935 14.5817 30.075 14.745C30.2383 14.885 30.32 15.0717 30.32 15.305V38.195C30.32 38.4283 30.2383 38.6267 30.075 38.79C29.935 38.93 29.7483 39 29.515 39H27.66Z" fill="#2D96E3"/>
<circle cx="129.5" cy="127.5" r="25.5" fill="white" stroke="#2D96E3" stroke-width="4"/>
<path d="M121.52 139C121.287 139 121.088 138.93 120.925 138.79C120.785 138.627 120.715 138.428 120.715 138.195V137.075C120.715 136.865 120.773 136.632 120.89 136.375C121.007 136.118 121.24 135.838 121.59 135.535L129.01 128.115C130.2 127.112 131.133 126.26 131.81 125.56C132.51 124.837 133 124.148 133.28 123.495C133.583 122.842 133.735 122.165 133.735 121.465C133.735 120.135 133.362 119.085 132.615 118.315C131.868 117.522 130.76 117.125 129.29 117.125C128.357 117.125 127.552 117.323 126.875 117.72C126.198 118.093 125.673 118.618 125.3 119.295C124.927 119.948 124.67 120.695 124.53 121.535C124.483 121.838 124.355 122.048 124.145 122.165C123.958 122.282 123.783 122.34 123.62 122.34H121.8C121.59 122.34 121.415 122.282 121.275 122.165C121.135 122.025 121.065 121.862 121.065 121.675C121.088 120.788 121.275 119.902 121.625 119.015C121.975 118.105 122.488 117.288 123.165 116.565C123.865 115.818 124.717 115.223 125.72 114.78C126.747 114.337 127.937 114.115 129.29 114.115C131.133 114.115 132.638 114.453 133.805 115.13C134.995 115.783 135.87 116.658 136.43 117.755C136.99 118.852 137.27 120.053 137.27 121.36C137.27 122.387 137.095 123.332 136.745 124.195C136.395 125.035 135.882 125.863 135.205 126.68C134.552 127.473 133.735 128.29 132.755 129.13L126.035 135.955H136.955C137.212 135.955 137.41 136.025 137.55 136.165C137.713 136.305 137.795 136.503 137.795 136.76V138.195C137.795 138.428 137.713 138.627 137.55 138.79C137.41 138.93 137.212 139 136.955 139H121.52Z" fill="#2D96E3"/>
<circle cx="27.5" cy="227.5" r="25.5" fill="white" stroke="#2D96E3" stroke-width="4"/>
<path d="M26.43 239.35C24.96 239.35 23.6767 239.175 22.58 238.825C21.4833 238.452 20.5617 237.962 19.815 237.355C19.0683 236.748 18.4967 236.083 18.1 235.36C17.7267 234.613 17.5283 233.867 17.505 233.12C17.505 232.91 17.575 232.747 17.715 232.63C17.855 232.49 18.03 232.42 18.24 232.42H19.955C20.165 232.42 20.3517 232.478 20.515 232.595C20.7017 232.688 20.8417 232.887 20.935 233.19C21.1683 234.03 21.565 234.683 22.125 235.15C22.7083 235.617 23.3733 235.943 24.12 236.13C24.89 236.293 25.66 236.375 26.43 236.375C28.04 236.375 29.3467 235.99 30.35 235.22C31.3533 234.45 31.855 233.318 31.855 231.825C31.855 230.308 31.4 229.223 30.49 228.57C29.58 227.917 28.32 227.59 26.71 227.59H23.385C23.1517 227.59 22.9533 227.52 22.79 227.38C22.65 227.24 22.58 227.042 22.58 226.785V225.84C22.58 225.63 22.615 225.455 22.685 225.315C22.7783 225.152 22.8717 225.012 22.965 224.895L29.755 217.475H19.43C19.1967 217.475 18.9983 217.405 18.835 217.265C18.695 217.125 18.625 216.927 18.625 216.67V215.34C18.625 215.083 18.695 214.885 18.835 214.745C18.9983 214.582 19.1967 214.5 19.43 214.5H33.395C33.6517 214.5 33.85 214.582 33.99 214.745C34.1533 214.885 34.235 215.083 34.235 215.34V216.6C34.235 216.763 34.1883 216.915 34.095 217.055C34.025 217.172 33.9433 217.288 33.85 217.405L27.095 224.93L27.655 224.965C29.195 225.012 30.5367 225.292 31.68 225.805C32.8467 226.318 33.745 227.088 34.375 228.115C35.0283 229.118 35.355 230.39 35.355 231.93C35.355 233.493 34.97 234.823 34.2 235.92C33.43 237.017 32.3683 237.868 31.015 238.475C29.685 239.058 28.1567 239.35 26.43 239.35Z" fill="#2D96E3"/>
<circle cx="129.5" cy="328.5" r="25.5" fill="white" stroke="#2D96E3" stroke-width="4"/>
<path d="M132.035 340C131.802 340 131.603 339.93 131.44 339.79C131.3 339.627 131.23 339.428 131.23 339.195V334.155H119.89C119.657 334.155 119.458 334.085 119.295 333.945C119.155 333.782 119.085 333.583 119.085 333.35V331.95C119.085 331.857 119.108 331.717 119.155 331.53C119.225 331.32 119.33 331.11 119.47 330.9L129.97 316.095C130.25 315.698 130.682 315.5 131.265 315.5H133.785C134.018 315.5 134.205 315.582 134.345 315.745C134.508 315.885 134.59 316.072 134.59 316.305V331.11H137.74C137.997 331.11 138.195 331.192 138.335 331.355C138.498 331.495 138.58 331.682 138.58 331.915V333.35C138.58 333.583 138.498 333.782 138.335 333.945C138.195 334.085 138.008 334.155 137.775 334.155H134.59V339.195C134.59 339.428 134.508 339.627 134.345 339.79C134.205 339.93 134.018 340 133.785 340H132.035ZM122.83 331.18H131.265V319.175L122.83 331.18Z" fill="#2D96E3"/>
<circle cx="27.5" cy="428.5" r="25.5" fill="white" stroke="#2D96E3" stroke-width="4"/>
<path d="M27.22 440.35C25.3767 440.35 23.8133 440.035 22.53 439.405C21.27 438.752 20.3017 437.912 19.625 436.885C18.9717 435.858 18.6217 434.773 18.575 433.63C18.5517 433.42 18.61 433.257 18.75 433.14C18.89 433 19.065 432.93 19.275 432.93H21.165C21.375 432.93 21.5617 432.988 21.725 433.105C21.8883 433.198 22.0167 433.397 22.11 433.7C22.3433 434.563 22.7167 435.275 23.23 435.835C23.7667 436.372 24.3733 436.768 25.05 437.025C25.75 437.258 26.4733 437.375 27.22 437.375C28.2233 437.375 29.1333 437.177 29.95 436.78C30.79 436.36 31.455 435.753 31.945 434.96C32.435 434.143 32.68 433.163 32.68 432.02C32.68 430.97 32.435 430.072 31.945 429.325C31.4783 428.555 30.825 427.972 29.985 427.575C29.1683 427.155 28.2467 426.945 27.22 426.945C26.45 426.945 25.82 427.038 25.33 427.225C24.84 427.412 24.42 427.633 24.07 427.89C23.7433 428.147 23.44 428.368 23.16 428.555C22.9033 428.742 22.6117 428.835 22.285 428.835H20.465C20.255 428.835 20.0683 428.765 19.905 428.625C19.7417 428.462 19.6717 428.275 19.695 428.065L20.815 416.375C20.8383 416.095 20.92 415.885 21.06 415.745C21.2233 415.582 21.4333 415.5 21.69 415.5H33.905C34.1383 415.5 34.325 415.582 34.465 415.745C34.6283 415.885 34.71 416.072 34.71 416.305V417.67C34.71 417.927 34.6283 418.125 34.465 418.265C34.325 418.405 34.1383 418.475 33.905 418.475H23.825L23.16 425.37C23.51 425.16 24.035 424.915 24.735 424.635C25.4583 424.332 26.45 424.18 27.71 424.18C28.8767 424.18 29.9617 424.355 30.965 424.705C31.9917 425.055 32.89 425.568 33.66 426.245C34.4533 426.922 35.0717 427.75 35.515 428.73C35.9583 429.687 36.18 430.795 36.18 432.055C36.18 433.828 35.795 435.333 35.025 436.57C34.255 437.807 33.1933 438.752 31.84 439.405C30.4867 440.035 28.9467 440.35 27.22 440.35Z" fill="#2D96E3"/>
</svg>
